<svg width="74" height="56" viewBox="0 0 74 56" fill="none" xmlns="http://www.w3.org/2000/svg">
<path d="M27.0976 15.8173L38.0229 15.964C40.1846 15.993 42.1251 16.546 43.8442 17.6231C45.583 18.6809 46.9462 20.1533 47.9337 22.0403C48.9215 23.9078 49.3992 26.0514 49.3667 28.4712C49.3285 31.3204 48.6351 33.6337 47.2867 35.4113C45.9578 37.1891 44.129 38.482 41.8002 39.29C39.4909 40.0983 36.8172 40.482 33.7792 40.4412L26.739 40.3467L26.7972 36.0145L34.8598 36.1227C37.2162 36.1544 39.1137 35.5553 40.5521 34.3254C42.01 33.0958 42.7562 31.1931 42.7908 28.6172C42.8254 26.0412 42.14 24.1388 40.7346 22.9098C39.3489 21.6615 37.4681 21.0215 35.0922 20.9896L27.0296 20.8813L27.0976 15.8173ZM27.0359 20.413L27.0976 15.8173L53.2425 16.1683L53.1808 20.764L27.0359 20.413ZM26.8964 30.8045L26.9584 26.1795L53.1326 26.5309L53.0705 31.1559L26.8964 30.8045ZM26.739 40.3467L32.3575 37.5237L49.3059 54.7613L40.7759 54.6468L26.739 40.3467Z" fill="#B3E6ED"/>
<path d="M23.7084 12.9928L34.6338 13.1395C36.7955 13.1685 38.7359 13.7216 40.455 14.7986C42.1938 15.8564 43.557 17.3288 44.5446 19.2158C45.5324 21.0833 46.01 23.227 45.9775 25.6468C45.9393 28.4959 45.246 30.8092 43.8976 32.5868C42.5687 34.3646 40.7398 35.6575 38.4111 36.4655C36.1018 37.2738 33.4281 37.6576 30.39 37.6168L23.3499 37.5223L23.408 33.19L31.4706 33.2983C33.8271 33.3299 35.7245 32.7308 37.1629 31.501C38.6208 30.2714 39.3671 28.3686 39.4017 25.7927C39.4362 23.2168 38.7508 21.3143 37.3454 20.0853C35.9597 18.8371 34.0789 18.197 31.703 18.1651L23.6404 18.0569L23.7084 12.9928ZM23.6467 17.5885L23.7084 12.9928L49.8533 13.3438L49.7916 17.9395L23.6467 17.5885ZM23.5072 27.98L23.5693 23.3551L49.7434 23.7065L49.6813 28.3314L23.5072 27.98ZM23.3499 37.5223L28.9683 34.6992L45.9168 51.9368L37.3868 51.8223L23.3499 37.5223Z" fill="#5516AA"/>
<path d="M60.7423 35.3237L66.2762 35.398C67.3711 35.4127 68.354 35.6928 69.2247 36.2384C70.1055 36.7741 70.796 37.5199 71.2962 38.4757C71.7965 39.4216 72.0385 40.5074 72.022 41.7331C72.0026 43.1762 71.6514 44.348 70.9685 45.2483C70.2953 46.1488 69.369 46.8037 68.1894 47.213C67.0198 47.6224 65.6655 47.8168 64.1267 47.7961L60.5607 47.7482L60.5902 45.5539L64.674 45.6087C65.8676 45.6247 66.8287 45.3213 67.5573 44.6983C68.2957 44.0755 68.6737 43.1118 68.6912 41.807C68.7087 40.5023 68.3615 39.5386 67.6497 38.9161C66.9478 38.2839 65.9952 37.9597 64.7917 37.9435L60.7079 37.8887L60.7423 35.3237ZM60.7111 37.6515L60.7423 35.3237L73.9851 35.5015L73.9539 37.8293L60.7111 37.6515ZM60.6404 42.9149L60.6719 40.5723L73.9295 40.7503L73.898 43.0929L60.6404 42.9149ZM60.5607 47.7482L63.4066 46.3183L71.9912 55.0494L67.6706 54.9914L60.5607 47.7482Z" fill="#B3E6ED"/>
<path d="M59.0255 33.8933L64.5594 33.9676C65.6543 33.9823 66.6372 34.2624 67.5079 34.8079C68.3887 35.3437 69.0792 36.0895 69.5794 37.0453C70.0797 37.9912 70.3217 39.077 70.3052 40.3027C70.2858 41.7458 69.9346 42.9176 69.2517 43.8179C68.5785 44.7184 67.6522 45.3733 66.4727 45.7826C65.303 46.192 63.9487 46.3863 62.4099 46.3657L58.8439 46.3178L58.8734 44.1235L62.9572 44.1783C64.1508 44.1943 65.1119 43.8909 65.8405 43.2679C66.5789 42.6451 66.9569 41.6813 66.9744 40.3766C66.9919 39.0718 66.6448 38.1082 65.9329 37.4857C65.231 36.8535 64.2784 36.5293 63.0749 36.5131L58.9911 36.4583L59.0255 33.8933ZM58.9943 36.221L59.0255 33.8933L72.2684 34.0711L72.2371 36.3988L58.9943 36.221ZM58.9236 41.4845L58.9551 39.1419L72.2127 39.3199L72.1812 41.6625L58.9236 41.4845ZM58.8439 46.3178L61.6898 44.8879L70.2744 53.619L65.9538 53.561L58.8439 46.3178Z" fill="#5516AA"/>
<path d="M2.49999 1.79346L9.43683 1.8866C10.8094 1.90502 12.0414 2.25617 13.1329 2.94002C14.2369 3.61165 15.1025 4.54652 15.7295 5.74463C16.3567 6.93035 16.6599 8.29141 16.6393 9.82781C16.615 11.6368 16.1748 13.1056 15.3187 14.2342C14.4749 15.363 13.3137 16.1839 11.8351 16.697C10.3689 17.2102 8.67129 17.4538 6.74233 17.4279L2.27234 17.3679L2.30927 14.6172L7.42843 14.686C8.92461 14.7061 10.1294 14.3257 11.0427 13.5448C11.9683 12.7641 12.4421 11.556 12.4641 9.92047C12.486 8.28494 12.0509 7.07701 11.1585 6.29669C10.2787 5.50415 9.08453 5.09775 7.57599 5.07749L2.45682 5.00876L2.49999 1.79346ZM2.46082 4.71139L2.49999 1.79346L19.1002 2.01634L19.061 4.93427L2.46082 4.71139ZM2.37223 11.3093L2.41166 8.37275L19.0304 8.59587L18.991 11.5324L2.37223 11.3093ZM2.27234 17.3679L5.83965 15.5755L16.6007 26.5201L11.1848 26.4474L2.27234 17.3679Z" fill="#B3E6ED"/>
<path d="M0.347649 0.000249021L7.28448 0.093383C8.65701 0.111811 9.88903 0.462952 10.9805 1.14681C12.0846 1.81844 12.9501 2.75331 13.5771 3.95142C14.2043 5.13713 14.5076 6.4982 14.487 8.0346C14.4627 9.8436 14.0225 11.3124 13.1663 12.441C12.3226 13.5698 11.1614 14.3907 9.68278 14.9038C8.21655 15.417 6.51895 15.6606 4.58999 15.6347L0.119996 15.5747L0.156926 12.824L5.27609 12.8928C6.77227 12.9129 7.97701 12.5325 8.89031 11.7516C9.81598 10.9709 10.2898 9.76279 10.3117 8.12726C10.3337 6.49173 9.89851 5.2838 9.00617 4.50348C8.12636 3.71093 6.93219 3.30453 5.42364 3.28428L0.304481 3.21555L0.347649 0.000249021ZM0.308473 2.91818L0.347649 0.000249021L16.9478 0.223123L16.9087 3.14105L0.308473 2.91818ZM0.21989 9.51605L0.259316 6.57954L16.878 6.80266L16.8386 9.73918L0.21989 9.51605ZM0.119996 15.5747L3.68731 13.7823L14.4484 24.7269L9.03245 24.6542L0.119996 15.5747Z" fill="#5516AA"/>
</svg>
