<svg width="306" height="270" viewBox="0 0 306 270" fill="none" xmlns="http://www.w3.org/2000/svg">
<g clip-path="url(#clip0_257_2025)">
<path d="M221.344 89.5367L184.19 70.195C184.19 70.195 171.714 56.4392 163.878 50.226C156.042 44.0128 153.63 48.5772 153.63 48.5772L150.336 54.0732L158.297 65.1569L179.798 83.3854L218.218 98.4509C218.819 99.4359 219.687 100.23 220.721 100.741C221.754 101.252 222.912 101.459 224.058 101.337C225.205 101.216 226.293 100.771 227.197 100.055C228.101 99.3392 228.784 98.3811 229.166 97.292C229.548 96.203 229.613 95.0279 229.355 93.9032C229.096 92.7785 228.524 91.7503 227.705 90.9381C226.885 90.126 225.853 89.5632 224.727 89.3151C223.601 89.0671 222.428 89.1439 221.344 89.5367Z" fill="#9F616A"/>
<path d="M124.703 72.8088L122.504 59.3364L116.293 57.7819C116.293 57.7819 111.363 56.2618 110.211 66.2021C109.059 76.1425 109.952 94.7015 109.952 94.7015L97.3419 134.68C96.2929 135.168 95.4042 135.945 94.7791 136.919C94.154 137.894 93.8183 139.026 93.8112 140.184C93.804 141.343 94.1256 142.479 94.7385 143.461C95.3515 144.443 96.2306 145.231 97.2734 145.733C98.3162 146.234 99.4799 146.429 100.629 146.294C101.778 146.159 102.865 145.7 103.763 144.97C104.662 144.241 105.335 143.27 105.704 142.173C106.073 141.075 106.123 139.895 105.848 138.77L122.374 100.92L124.703 72.8088Z" fill="#9F616A"/>
<path d="M176.077 261.874L184.204 261.873L188.071 230.489L176.075 230.49L176.077 261.874Z" fill="#9F616A"/>
<path d="M174.003 259.218L190.009 259.217H190.01C192.715 259.217 195.31 260.293 197.223 262.208C199.135 264.123 200.21 266.72 200.21 269.429V269.761L174.004 269.761L174.003 259.218Z" fill="#2F2E41"/>
<path d="M87.4294 261.874L95.5571 261.873L99.4233 230.489L87.4282 230.49L87.4294 261.874Z" fill="#9F616A"/>
<path d="M85.3569 259.218L101.363 259.217H101.364C104.069 259.217 106.663 260.293 108.576 262.208C110.489 264.123 111.564 266.72 111.564 269.429V269.761L85.3574 269.761L85.3569 259.218Z" fill="#2F2E41"/>
<path d="M127.554 45.8966L114.073 57.4174L125.136 92.467L127.632 100.294C127.632 100.294 112.39 114.363 102.959 153.666C93.5278 192.969 78.0996 245.193 78.0996 245.193L110.666 254.526L137.161 165.619L168.325 235.369L171.923 255.999L199.656 247.813L193.114 196.073L160.405 106.511L163.803 82.7695C163.803 82.7695 168.905 70.9193 160.041 58.3732L157.261 46.5844L147.301 44.1284L127.554 45.8966Z" fill="#2F2E41"/>
<path d="M149.949 39.6333H113.502C112.752 39.6325 112.034 39.3339 111.503 38.8032C110.973 38.2725 110.675 37.5529 110.674 36.8023V21.0748C110.674 15.4854 112.892 10.125 116.84 6.17268C120.788 2.22038 126.142 0 131.725 0C137.308 0 142.663 2.22038 146.611 6.17268C150.558 10.125 152.776 15.4854 152.776 21.0748V36.8023C152.776 37.5529 152.477 38.2725 151.947 38.8032C151.417 39.3339 150.698 39.6325 149.949 39.6333Z" fill="#2F2E41"/>
<path d="M149.594 31.2271C153.682 23.7393 150.933 14.3511 143.454 10.2579C135.975 6.16468 126.597 8.91653 122.508 16.4043C118.42 23.8921 121.169 33.2803 128.648 37.3735C136.127 41.4667 145.505 38.7149 149.594 31.2271Z" fill="#9F616A"/>
<path d="M157.757 22.6473H135.47L135.242 19.4441L134.099 22.6473H130.668L130.215 16.2986L127.95 22.6473H121.31V22.3328C121.315 17.9128 123.071 13.6754 126.193 10.55C129.315 7.42464 133.547 5.66662 137.962 5.66162H141.104C145.519 5.66661 149.752 7.42463 152.874 10.55C155.996 13.6754 157.752 17.9128 157.757 22.3328V22.6473Z" fill="#2F2E41"/>
<path d="M135.288 42.5693C135.12 42.5691 134.953 42.5543 134.788 42.5251L118.469 39.6425V12.6416H136.433L135.988 13.1607C129.8 20.3855 134.462 32.1007 137.792 38.4408C138.037 38.9052 138.146 39.4295 138.107 39.9534C138.068 40.4773 137.882 40.9794 137.57 41.402C137.309 41.7634 136.966 42.0576 136.569 42.2605C136.173 42.4635 135.734 42.5693 135.288 42.5693Z" fill="#2F2E41"/>
<path d="M270.244 184.122L127.225 234.746C123.689 235.993 119.803 235.785 116.42 234.167C113.037 232.55 110.433 229.655 109.179 226.117L84.61 156.549C83.3643 153.009 83.5721 149.118 85.1878 145.731C86.8035 142.345 89.6953 139.737 93.2286 138.482L236.248 87.8592C239.784 86.6121 243.67 86.8201 247.053 88.4377C250.437 90.0552 253.041 92.9502 254.294 96.4876L278.863 166.056C280.109 169.596 279.901 173.486 278.285 176.873C276.67 180.26 273.778 182.867 270.244 184.122Z" fill="white"/>
<path d="M278.863 166.056L278.993 166.424C280.186 169.805 279.989 173.522 278.445 176.757C276.901 179.993 274.136 182.481 270.759 183.676L127.025 234.552C123.648 235.747 119.936 235.55 116.705 234.005C113.474 232.46 110.988 229.694 109.794 226.314L109.664 225.946L278.863 166.056Z" fill="#F2F2F2"/>
<path d="M237.099 172.353C234.778 173.174 232.689 173.136 230.888 172.241C226.818 170.216 224.908 164.213 223.374 159.39C222.927 157.986 222.505 156.661 222.076 155.578L222.07 155.561C221.323 153.412 221.453 151.054 222.432 149.001C223.411 146.947 225.16 145.363 227.299 144.593L246.536 137.784C248.853 136.963 250.94 137.001 252.74 137.895C256.809 139.917 258.72 145.918 260.256 150.739C260.704 152.146 261.127 153.474 261.558 154.559C262.309 156.71 262.182 159.071 261.203 161.129C260.224 163.186 258.473 164.773 256.331 165.545L237.099 172.353ZM222.876 155.269C223.315 156.379 223.74 157.715 224.19 159.129C225.676 163.798 227.525 169.61 231.269 171.472C232.877 172.272 234.69 172.295 236.813 171.544L256.044 164.737C257.971 164.043 259.546 162.617 260.428 160.767C261.31 158.918 261.428 156.795 260.755 154.859C260.319 153.763 259.892 152.421 259.439 151C257.953 146.333 256.102 140.524 252.359 138.663C250.753 137.865 248.941 137.842 246.822 138.592L227.586 145.401C225.661 146.095 224.088 147.519 223.206 149.367C222.324 151.214 222.206 153.335 222.876 155.269Z" fill="#3F3D56"/>
<path d="M119.337 206.815C118.136 207.291 116.828 207.431 115.554 207.219C114.28 207.007 113.087 206.452 112.104 205.613C110.954 204.606 110.082 203.32 109.572 201.878C109.062 200.436 108.932 198.887 109.194 197.38C109.437 196.083 110.034 194.879 110.919 193.901C111.804 192.923 112.942 192.21 114.207 191.84L139.838 182.767C141.055 182.262 142.387 182.104 143.688 182.308C144.988 182.513 146.207 183.074 147.21 183.928C148.36 184.935 149.232 186.222 149.741 187.664C150.25 189.106 150.379 190.655 150.117 192.161C149.611 194.809 147.825 196.76 145.103 197.694L119.471 206.767C119.426 206.783 119.381 206.799 119.337 206.815ZM114.366 192.692C113.272 193.03 112.291 193.66 111.528 194.514C110.765 195.369 110.249 196.415 110.036 197.541C109.8 198.898 109.917 200.294 110.376 201.593C110.835 202.892 111.621 204.051 112.658 204.958C113.546 205.711 114.626 206.204 115.777 206.381C116.928 206.558 118.106 206.412 119.179 205.96L144.824 196.883C145.943 196.559 146.952 195.932 147.738 195.07C148.523 194.209 149.056 193.146 149.275 192C149.512 190.643 149.395 189.247 148.936 187.948C148.478 186.649 147.692 185.49 146.656 184.583C145.767 183.83 144.686 183.337 143.535 183.159C142.383 182.981 141.205 183.125 140.13 183.574L114.484 192.652C114.444 192.665 114.405 192.678 114.366 192.692L114.366 192.692Z" fill="#3F3D56"/>
<path d="M237.27 151.884L229.19 154.744C228.654 154.934 228.065 154.902 227.552 154.657C227.039 154.412 226.645 153.973 226.456 153.437C226.266 152.9 226.297 152.311 226.542 151.797C226.787 151.284 227.226 150.889 227.761 150.699L235.842 147.839C236.377 147.65 236.966 147.681 237.479 147.926C237.992 148.171 238.386 148.61 238.576 149.147C238.765 149.683 238.734 150.273 238.489 150.786C238.244 151.299 237.806 151.694 237.27 151.884Z" fill="#5516AA"/>
<path d="M239.555 158.356L231.475 161.216C230.939 161.405 230.35 161.374 229.837 161.129C229.325 160.884 228.93 160.445 228.741 159.908C228.551 159.372 228.582 158.782 228.827 158.269C229.072 157.756 229.511 157.361 230.047 157.171L238.127 154.311C238.662 154.121 239.252 154.152 239.764 154.398C240.277 154.643 240.672 155.082 240.861 155.618C241.05 156.155 241.019 156.744 240.774 157.258C240.529 157.771 240.091 158.166 239.555 158.356Z" fill="#5516AA"/>
<path d="M241.84 164.827L233.76 167.687C233.495 167.781 233.214 167.822 232.933 167.807C232.652 167.792 232.376 167.722 232.123 167.6C231.869 167.479 231.641 167.309 231.453 167.099C231.265 166.89 231.12 166.645 231.026 166.38C230.932 166.114 230.891 165.833 230.906 165.551C230.921 165.27 230.991 164.995 231.112 164.74C231.234 164.486 231.404 164.258 231.613 164.07C231.822 163.882 232.066 163.736 232.332 163.642L240.412 160.782C240.677 160.688 240.958 160.648 241.239 160.663C241.52 160.678 241.796 160.748 242.05 160.869C242.303 160.99 242.531 161.161 242.719 161.37C242.907 161.58 243.052 161.824 243.146 162.09C243.24 162.355 243.281 162.637 243.266 162.918C243.251 163.199 243.181 163.475 243.06 163.729C242.938 163.983 242.768 164.211 242.559 164.399C242.35 164.588 242.106 164.733 241.84 164.827Z" fill="#5516AA"/>
<path d="M251.41 146.879L243.33 149.739C243.065 149.833 242.784 149.874 242.503 149.859C242.222 149.844 241.946 149.774 241.692 149.653C241.438 149.531 241.211 149.361 241.023 149.152C240.835 148.942 240.689 148.698 240.596 148.432C240.502 148.166 240.461 147.885 240.476 147.604C240.491 147.322 240.561 147.047 240.682 146.793C240.804 146.538 240.974 146.311 241.183 146.122C241.392 145.934 241.636 145.789 241.902 145.695L249.982 142.835C250.517 142.645 251.107 142.676 251.619 142.921C252.132 143.167 252.527 143.606 252.716 144.142C252.905 144.678 252.874 145.268 252.629 145.781C252.384 146.295 251.946 146.69 251.41 146.879Z" fill="#5516AA"/>
<path d="M253.696 153.35L245.616 156.211C245.35 156.304 245.069 156.345 244.788 156.33C244.507 156.315 244.232 156.245 243.978 156.124C243.724 156.002 243.497 155.832 243.308 155.623C243.12 155.413 242.975 155.169 242.881 154.903C242.788 154.638 242.747 154.356 242.762 154.075C242.777 153.794 242.847 153.518 242.968 153.264C243.089 153.01 243.259 152.782 243.469 152.593C243.678 152.405 243.922 152.26 244.187 152.166L252.267 149.306C252.533 149.212 252.814 149.171 253.095 149.186C253.376 149.201 253.651 149.271 253.905 149.393C254.159 149.514 254.386 149.684 254.575 149.894C254.763 150.103 254.908 150.348 255.002 150.613C255.095 150.879 255.136 151.16 255.121 151.441C255.106 151.723 255.036 151.998 254.915 152.253C254.794 152.507 254.624 152.734 254.414 152.923C254.205 153.111 253.961 153.257 253.696 153.35Z" fill="#5516AA"/>
<path d="M255.981 159.822L247.901 162.682C247.365 162.871 246.776 162.84 246.263 162.595C245.75 162.35 245.356 161.911 245.166 161.374C244.977 160.838 245.008 160.248 245.253 159.735C245.498 159.222 245.937 158.827 246.472 158.637L254.553 155.777C254.818 155.683 255.099 155.642 255.38 155.657C255.661 155.672 255.936 155.742 256.19 155.864C256.444 155.985 256.672 156.155 256.86 156.365C257.048 156.574 257.193 156.819 257.287 157.084C257.381 157.35 257.421 157.631 257.406 157.913C257.391 158.194 257.321 158.47 257.2 158.724C257.079 158.978 256.909 159.206 256.7 159.394C256.49 159.582 256.246 159.728 255.981 159.822Z" fill="#5516AA"/>
<path d="M259.644 111.631L90.4443 171.521L90.73 172.33L259.93 112.44L259.644 111.631Z" fill="#3F3D56"/>
<path d="M270.244 184.122L127.225 234.746C123.689 235.993 119.803 235.785 116.42 234.167C113.037 232.55 110.433 229.655 109.179 226.117L84.61 156.549C83.3643 153.009 83.5721 149.118 85.1878 145.731C86.8035 142.345 89.6953 139.737 93.2286 138.482L236.248 87.8592C239.784 86.6121 243.67 86.8201 247.053 88.4377C250.437 90.0552 253.041 92.9502 254.294 96.4876L278.863 166.056C280.109 169.596 279.901 173.486 278.285 176.873C276.67 180.26 273.778 182.867 270.244 184.122ZM93.5143 139.291C90.1951 140.47 87.4787 142.919 85.9608 146.101C84.443 149.283 84.2478 152.937 85.4181 156.263L109.987 225.831C111.165 229.154 113.611 231.874 116.789 233.393C119.967 234.913 123.617 235.108 126.939 233.937L269.959 183.313C273.278 182.134 275.994 179.685 277.512 176.504C279.03 173.322 279.225 169.667 278.055 166.342L253.486 96.7735C252.309 93.4506 249.862 90.7311 246.684 89.2116C243.506 87.692 239.856 87.4966 236.534 88.6682L93.5143 139.291Z" fill="#3F3D56"/>
<path d="M157.034 273.462C235.805 273.462 299.661 270.879 299.661 267.692C299.661 264.506 235.805 261.923 157.034 261.923C78.2631 261.923 14.4067 264.506 14.4067 267.692C14.4067 270.879 78.2631 273.462 157.034 273.462Z" fill="#E6E6E6"/>
<g filter="url(#filter0_d_257_2025)">
<path d="M96.9453 151.647C96.4301 151.846 95.8511 151.59 95.652 151.075L95.617 150.985C95.4179 150.469 95.6742 149.89 96.1893 149.691L107.301 145.397C107.816 145.198 108.395 145.454 108.594 145.969L108.629 146.06C108.828 146.575 108.572 147.154 108.057 147.353L96.9453 151.647Z" fill="#5516AA"/>
<path d="M103.502 154.622C102.987 154.821 102.408 154.564 102.209 154.049L102.174 153.959C101.975 153.444 102.231 152.865 102.746 152.666L109.153 150.189C109.668 149.99 110.247 150.246 110.447 150.762L110.482 150.852C110.681 151.367 110.424 151.946 109.909 152.145L103.502 154.622Z" fill="#5516AA"/>
<path fill-rule="evenodd" clip-rule="evenodd" d="M118.419 141.102L111.419 143.807L113.948 150.352L120.992 147.629L123.437 143.322L118.419 141.102ZM118.023 139.47C118.304 139.362 118.616 139.369 118.891 139.491L124.646 142.037C125.26 142.309 125.505 143.051 125.173 143.635L122.346 148.615C122.217 148.843 122.013 149.019 121.769 149.113L114.054 152.095C113.47 152.321 112.813 152.03 112.587 151.445L109.676 143.913C109.45 143.328 109.74 142.671 110.325 142.445L118.023 139.47Z" fill="#5516AA"/>
</g>
</g>
<defs>
<filter id="filter0_d_257_2025" x="71.5493" y="111.394" width="77.7725" height="63.2952" filterUnits="userSpaceOnUse" color-interpolation-filters="sRGB">
<feFlood flood-opacity="0" result="BackgroundImageFix"/>
<feColorMatrix in="SourceAlpha" type="matrix" values="0 0 0 0 0 0 0 0 0 0 0 0 0 0 0 0 0 0 127 0" result="hardAlpha"/>
<feOffset dy="-4"/>
<feGaussianBlur stdDeviation="12"/>
<feComposite in2="hardAlpha" operator="out"/>
<feColorMatrix type="matrix" values="0 0 0 0 0.368627 0 0 0 0 0.505882 0 0 0 0 0.956863 0 0 0 0.25 0"/>
<feBlend mode="normal" in2="BackgroundImageFix" result="effect1_dropShadow_257_2025"/>
<feBlend mode="normal" in="SourceGraphic" in2="effect1_dropShadow_257_2025" result="shape"/>
</filter>
<clipPath id="clip0_257_2025">
<rect width="306" height="270" fill="white"/>
</clipPath>
</defs>
</svg>
