<svg width="303" height="287" viewBox="0 0 303 287" fill="none" xmlns="http://www.w3.org/2000/svg">
<path d="M202.62 25.7223L169.151 50.9081C169.151 50.9081 151.361 56.2358 142.376 60.6274C133.392 65.019 136.471 69.1631 136.471 69.1631L140.01 74.5045L153.442 72.1001L179.16 60.5573L209.316 32.3856C210.464 32.268 211.554 31.8274 212.461 31.1149C213.368 30.4024 214.053 29.4473 214.438 28.3605C214.823 27.2737 214.891 26.0999 214.634 24.9754C214.378 23.8509 213.808 22.8218 212.99 22.0078C212.172 21.1938 211.14 20.6282 210.013 20.3767C208.887 20.1253 207.713 20.1983 206.627 20.5873C205.541 20.9763 204.588 21.6653 203.879 22.5743C203.169 23.4832 202.733 24.5749 202.62 25.7223Z" fill="#9F616A"/>
<path d="M161.67 274.874L169.797 274.873L173.664 243.489L161.668 243.49L161.67 274.874Z" fill="#9F616A"/>
<path d="M159.597 272.218L175.603 272.217H175.603C178.309 272.217 180.903 273.293 182.816 275.208C184.729 277.123 185.803 279.72 185.804 282.429V282.761L159.597 282.761L159.597 272.218Z" fill="#2F2E41"/>
<path d="M73.0226 274.874L81.1504 274.873L85.0166 243.489L73.0215 243.49L73.0226 274.874Z" fill="#9F616A"/>
<path d="M70.9492 272.218L86.9552 272.217H86.9559C89.6611 272.217 92.2554 273.293 94.1683 275.208C96.0812 277.123 97.1559 279.72 97.1561 282.429V282.761L70.9497 282.761L70.9492 272.218Z" fill="#2F2E41"/>
<path d="M113.146 58.8966L99.6658 70.4174L110.729 105.467L113.225 113.294C113.225 113.294 97.9828 127.363 88.5517 166.666C79.1206 205.969 63.6924 258.193 63.6924 258.193L96.2587 267.526L122.754 178.619L153.918 248.369L157.516 268.999L185.249 260.813L178.707 209.073L145.998 119.511L149.395 95.7695C149.395 95.7695 154.498 83.9193 145.634 71.3732L142.853 59.5844L132.894 57.1284L113.146 58.8966Z" fill="#2F2E41"/>
<path d="M135.542 52.6333H99.0953C98.3456 52.6325 97.6269 52.3339 97.0967 51.8032C96.5666 51.2725 96.2684 50.5529 96.2676 49.8023V34.0748C96.2676 28.4854 98.4854 23.125 102.433 19.1727C106.381 15.2204 111.736 13 117.319 13C122.902 13 128.256 15.2204 132.204 19.1727C136.152 23.125 138.37 28.4854 138.37 34.0748V49.8023C138.369 50.5529 138.071 51.2725 137.54 51.8032C137.01 52.3339 136.292 52.6325 135.542 52.6333Z" fill="#2F2E41"/>
<path d="M135.186 44.2271C139.275 36.7393 136.526 27.3511 129.047 23.2579C121.567 19.1647 112.19 21.9165 108.101 29.4043C104.013 36.8921 106.761 46.2803 114.241 50.3735C121.72 54.4667 131.098 51.7149 135.186 44.2271Z" fill="#9F616A"/>
<path d="M143.35 35.6473H121.064L120.835 32.4441L119.692 35.6473H116.261L115.808 29.2986L113.543 35.6473H106.903V35.3328C106.908 30.9128 108.664 26.6754 111.786 23.55C114.908 20.4246 119.141 18.6666 123.555 18.6616H126.698C131.112 18.6666 135.345 20.4246 138.467 23.55C141.589 26.6754 143.345 30.9128 143.35 35.3328V35.6473Z" fill="#2F2E41"/>
<path d="M120.881 55.5693C120.713 55.5691 120.546 55.5543 120.38 55.5251L104.062 52.6425V25.6416H122.026L121.581 26.1607C115.393 33.3855 120.055 45.1007 123.384 51.4408C123.63 51.9052 123.739 52.4295 123.7 52.9534C123.661 53.4773 123.475 53.9794 123.163 54.402C122.902 54.7634 122.559 55.0576 122.162 55.2605C121.766 55.4635 121.326 55.5693 120.881 55.5693Z" fill="#2F2E41"/>
<path d="M142.627 286.462C221.398 286.462 285.254 283.879 285.254 280.692C285.254 277.506 221.398 274.923 142.627 274.923C63.8563 274.923 0 277.506 0 280.692C0 283.879 63.8563 286.462 142.627 286.462Z" fill="#E6E6E6"/>
<rect x="175.765" y="55.1504" width="69.8666" height="92.5045" rx="3.54467" fill="white" stroke="black" stroke-width="0.472622"/>
<rect x="184.826" y="66.6372" width="51.7438" height="5.25523" fill="#929297"/>
<rect x="184.826" y="85.2324" width="51.7438" height="5.25523" fill="#929297"/>
<rect x="184.826" y="75.9351" width="51.7438" height="5.25523" fill="#929297"/>
<rect x="184.826" y="94.5303" width="51.7438" height="5.25523" fill="#929297"/>
<rect x="184.826" y="130.913" width="17.7869" height="5.25523" fill="#929297"/>
<rect x="188.719" y="54.7681" width="69.8666" height="92.5045" rx="3.54467" transform="rotate(2 188.719 54.7681)" fill="white" stroke="black" stroke-width="0.472622"/>
<rect x="197.374" y="66.5645" width="51.7438" height="5.25523" transform="rotate(2 197.374 66.5645)" fill="#929297"/>
<rect x="196.725" y="85.1479" width="51.7438" height="5.25523" transform="rotate(2 196.725 85.1479)" fill="#929297"/>
<rect x="197.05" y="75.8562" width="51.7438" height="5.25523" transform="rotate(2 197.05 75.8562)" fill="#929297"/>
<rect x="196.401" y="94.4404" width="51.7438" height="5.25523" transform="rotate(2 196.401 94.4404)" fill="#929297"/>
<rect x="195.131" y="130.801" width="17.7869" height="5.25523" transform="rotate(2 195.131 130.801)" fill="#929297"/>
<rect x="204.113" y="54.2363" width="69.8666" height="92.5045" rx="3.54467" transform="rotate(6 204.113 54.2363)" fill="white" stroke="black" stroke-width="0.472622"/>
<rect x="211.924" y="66.6074" width="51.7438" height="5.25523" transform="rotate(6 211.924 66.6074)" fill="#929297"/>
<rect x="209.981" y="85.1008" width="51.7438" height="5.25523" transform="rotate(6 209.981 85.1008)" fill="#929297"/>
<rect x="210.953" y="75.8542" width="51.7438" height="5.25523" transform="rotate(6 210.953 75.8542)" fill="#929297"/>
<rect x="209.009" y="94.3477" width="51.7438" height="5.25523" transform="rotate(6 209.009 94.3477)" fill="#929297"/>
<rect x="205.206" y="130.531" width="17.7869" height="5.25523" transform="rotate(6 205.206 130.531)" fill="#929297"/>
<path fill-rule="evenodd" clip-rule="evenodd" d="M223.23 178.21C263.863 178.21 296.803 145.27 296.803 104.637C296.803 64.0036 263.863 31.0637 223.23 31.0637C182.596 31.0637 149.656 64.0036 149.656 104.637C149.656 145.27 182.596 178.21 223.23 178.21ZM223.23 184.274C267.212 184.274 302.867 148.619 302.867 104.637C302.867 60.6546 267.212 25 223.23 25C179.247 25 143.593 60.6546 143.593 104.637C143.593 148.619 179.247 184.274 223.23 184.274Z" fill="#EF4F53"/>
<path fill-rule="evenodd" clip-rule="evenodd" d="M176.988 166.432L264.104 41.1147L270.078 45.2681L182.963 170.585L176.988 166.432Z" fill="#EF4F53"/>
<path d="M100.416 86.4319L96.2951 73.4179L101.135 69.2263C101.135 69.2263 104.847 65.6441 110.363 73.993C115.88 82.3419 123.464 99.3044 123.464 99.3044L152.768 129.28C153.924 129.242 155.068 129.534 156.066 130.121C157.063 130.708 157.874 131.567 158.404 132.597C158.933 133.627 159.159 134.787 159.056 135.94C158.953 137.093 158.524 138.193 157.82 139.111C157.116 140.029 156.165 140.728 155.079 141.127C153.993 141.525 152.816 141.607 151.685 141.361C150.554 141.116 149.515 140.554 148.69 139.742C147.865 138.929 147.288 137.899 147.025 136.771L115.188 110.462L100.416 86.4319Z" fill="#9F616A"/>
</svg>
