<svg width="292" height="273" viewBox="0 0 292 273" fill="none" xmlns="http://www.w3.org/2000/svg">
<path d="M172.5 273C106.502 273 53 270.538 53 267.5C53 264.462 106.502 262 172.5 262C238.498 262 292 264.462 292 267.5C292 270.538 238.498 273 172.5 273Z" fill="#E6E6E6"/>
<path d="M239.849 235.787C240.883 235.852 241.454 234.567 240.672 233.819L240.594 233.509C240.604 233.485 240.615 233.46 240.625 233.435C241.67 230.942 245.214 230.959 246.25 233.456C247.17 235.672 248.342 237.891 248.63 240.234C248.759 241.269 248.701 242.322 248.472 243.337C250.627 238.628 251.762 233.486 251.762 228.315C251.762 227.015 251.691 225.716 251.545 224.42C251.426 223.36 251.261 222.306 251.047 221.262C249.894 215.619 247.395 210.244 243.792 205.755C242.059 204.808 240.615 203.328 239.742 201.554C239.428 200.914 239.183 200.225 239.066 199.524C239.264 199.55 239.81 196.547 239.661 196.363C239.936 195.946 240.428 195.739 240.728 195.332C242.22 193.309 244.276 193.662 245.349 196.411C247.642 197.569 247.665 199.488 246.258 201.334C245.363 202.508 245.24 204.097 244.454 205.354C244.535 205.458 244.619 205.558 244.7 205.661C246.182 207.562 247.463 209.605 248.543 211.751C248.238 209.366 248.689 206.492 249.457 204.64C250.332 202.53 251.972 200.752 253.416 198.928C255.15 196.737 258.707 197.693 259.012 200.471C259.015 200.498 259.018 200.525 259.021 200.552C258.806 200.673 258.596 200.801 258.391 200.937C257.22 201.711 257.625 203.526 259.012 203.74L259.044 203.745C258.966 204.517 258.833 205.283 258.64 206.036C260.492 213.2 256.493 215.809 250.783 215.926C250.656 215.991 250.534 216.056 250.408 216.117C250.986 217.746 251.448 219.417 251.791 221.11C252.098 222.607 252.311 224.119 252.431 225.639C252.579 227.555 252.567 229.481 252.405 231.395L252.415 231.327C252.825 229.22 253.969 227.251 255.631 225.887C258.105 223.854 261.602 223.106 264.272 221.472C265.557 220.685 267.204 221.702 266.979 223.192L266.968 223.263C266.571 223.425 266.183 223.612 265.808 223.822C265.594 223.943 265.384 224.072 265.178 224.207C264.008 224.982 264.412 226.796 265.799 227.011L265.831 227.015C265.853 227.019 265.873 227.022 265.895 227.025C265.213 228.644 264.263 230.147 263.074 231.443C261.916 237.697 256.941 238.29 251.62 236.469H251.616C251.035 239.003 250.185 241.479 249.092 243.838H240.075C240.042 243.738 240.013 243.634 239.984 243.534C240.818 243.586 241.658 243.537 242.479 243.386C241.81 242.565 241.141 241.737 240.472 240.916C240.456 240.9 240.443 240.884 240.43 240.868C240.091 240.448 239.748 240.031 239.409 239.611L239.409 239.61C239.388 238.32 239.542 237.035 239.849 235.787L239.849 235.787V235.787Z" fill="#F2F2F2"/>
<path d="M109.045 265.771H20.7615C9.99697 265.771 1.23926 257.013 1.23926 246.249V56.5223C1.23926 45.7577 9.99697 37 20.7615 37H109.045C119.809 37 128.567 45.7577 128.567 56.5223V246.249C128.567 257.013 119.809 265.771 109.045 265.771Z" fill="#3F3D56"/>
<path d="M122.566 84.7224C122.111 84.7224 121.74 85.0928 121.74 85.5483V111.977C121.74 112.432 122.111 112.803 122.566 112.803C123.022 112.803 123.392 112.432 123.392 111.977V85.5483C123.392 85.0928 123.022 84.7224 122.566 84.7224Z" fill="#3F3D56"/>
<path d="M126.709 56.5224V246.245C126.709 255.615 119.416 263.279 110.195 263.874H110.191C110.055 263.882 109.918 263.89 109.778 263.895C109.534 263.907 109.291 263.911 109.043 263.911C109.043 263.911 108.134 263.845 106.474 263.721C104.798 263.597 102.357 263.411 99.3138 263.168C98.4012 263.098 97.4391 263.019 96.4232 262.937C94.3998 262.771 92.1782 262.59 89.7955 262.383C88.8457 262.305 87.8629 262.218 86.8595 262.131C81.7307 261.689 75.9866 261.173 69.9288 260.587C68.9047 260.492 67.8723 260.393 66.8317 260.29C66.5591 260.261 66.2825 260.236 66.0058 260.207C61.6864 259.782 3.09766 248.459 3.09766 246.245V56.5224C3.09766 46.7646 11.0055 38.8567 20.7634 38.8567H31.31C32.9948 38.8567 34.3492 40.1699 34.4938 41.8505C34.5062 41.962 34.5186 42.0735 34.5392 42.185C34.8448 43.874 36.3933 45.0508 38.1112 45.0508H91.695C93.4129 45.0508 94.9614 43.874 95.267 42.185C95.2876 42.0735 95.3 41.962 95.3124 41.8505C95.4569 40.1699 96.8114 38.8567 98.4962 38.8567H109.043C118.801 38.8567 126.709 46.7646 126.709 56.5224Z" fill="white"/>
<path d="M0.825886 86.9663C0.370396 86.9663 0 87.3367 0 87.7922V94.3993C0 94.8548 0.370401 95.2252 0.825886 95.2252C1.28137 95.2252 1.65177 94.8548 1.65177 94.3993V87.7922C1.65177 87.3367 1.28137 86.9663 0.825886 86.9663Z" fill="#3F3D56"/>
<path d="M0.825886 106.787C0.370396 106.787 0 107.158 0 107.613V120.415C0 120.87 0.370401 121.24 0.825886 121.24C1.28137 121.24 1.65177 120.87 1.65177 120.415V107.613C1.65177 107.158 1.28137 106.787 0.825886 106.787Z" fill="#3F3D56"/>
<path d="M0.825886 124.957C0.370396 124.957 0 125.327 0 125.783V138.584C0 139.04 0.370401 139.41 0.825886 139.41C1.28137 139.41 1.65177 139.04 1.65177 138.584V125.783C1.65177 125.327 1.28137 124.957 0.825886 124.957Z" fill="#3F3D56"/>
<path d="M31.0218 41.749H15.2275C15.1418 41.749 15.0723 41.8185 15.0723 41.9042V43.6585C15.0723 43.7442 15.1418 43.8137 15.2275 43.8137H31.0218C31.1076 43.8137 31.1771 43.7442 31.1771 43.6585V41.9042C31.1771 41.8185 31.1076 41.749 31.0218 41.749Z" fill="#E6E6E6"/>
<path d="M95.1059 21.7486C96.0181 21.7486 96.7577 21.0091 96.7577 20.0968C96.7577 19.1846 96.0181 18.4451 95.1059 18.4451C94.1936 18.4451 93.4541 19.1846 93.4541 20.0968C93.4541 21.0091 94.1936 21.7486 95.1059 21.7486Z" fill="#E6E6E6"/>
<path d="M99.6479 21.7486C100.56 21.7486 101.3 21.0091 101.3 20.0968C101.3 19.1846 100.56 18.4451 99.6479 18.4451C98.7356 18.4451 97.9961 19.1846 97.9961 20.0968C97.9961 21.0091 98.7356 21.7486 99.6479 21.7486Z" fill="#E6E6E6"/>
<path d="M104.19 21.7486C105.102 21.7486 105.842 21.0091 105.842 20.0968C105.842 19.1846 105.102 18.4451 104.19 18.4451C103.278 18.4451 102.538 19.1846 102.538 20.0968C102.538 21.0091 103.278 21.7486 104.19 21.7486Z" fill="#E6E6E6"/>
<path d="M99.7237 153.442H29.6676C28.5639 153.442 27.666 152.544 27.666 151.441C27.666 150.337 28.5639 149.439 29.6676 149.439H99.7237C100.827 149.439 101.725 150.337 101.725 151.441C101.725 152.544 100.827 153.442 99.7237 153.442Z" fill="#E6E6E6"/>
<path d="M64.947 231.004C80.9761 231.004 93.9703 218.01 93.9703 201.981C93.9703 185.952 80.9761 172.958 64.947 172.958C48.918 172.958 35.9238 185.952 35.9238 201.981C35.9238 218.01 48.918 231.004 64.947 231.004Z" fill="#5516AA"/>
<path d="M161.854 15H71.0403C67.7089 15 65 17.7089 65 21.0403V83.2723C65 86.6037 67.7089 89.3126 71.0403 89.3126H161.854C165.185 89.3126 167.894 86.6037 167.894 83.2723V21.0403C167.894 17.7089 165.185 15 161.854 15Z" fill="white"/>
<path d="M116.03 52.0026C121.642 52.0026 126.192 47.4527 126.192 41.8401C126.192 36.2276 121.642 31.6777 116.03 31.6777C110.417 31.6777 105.867 36.2276 105.867 41.8401C105.867 47.4527 110.417 52.0026 116.03 52.0026Z" fill="#5516AA"/>
<path d="M161.854 15H71.0403C67.7089 15 65 17.7089 65 21.0403V83.2723C65 86.6037 67.7089 89.3126 71.0403 89.3126H161.854C165.185 89.3126 167.894 86.6037 167.894 83.2723V21.0403C167.894 17.7089 165.185 15 161.854 15ZM167.259 83.2723C167.259 86.2544 164.836 88.6775 161.854 88.6775H71.0403C68.0583 88.6775 65.6352 86.2544 65.6352 83.2723V21.0403C65.6352 18.0583 68.0583 15.6352 71.0403 15.6352H161.854C164.836 15.6352 167.259 18.0583 167.259 21.0403V83.2723Z" fill="#3F3D56"/>
<path d="M105.976 21.145H97.0649C96.6172 21.145 96.252 21.5102 96.252 21.958C96.252 22.409 96.6172 22.7742 97.0649 22.7742H105.976C106.424 22.7742 106.789 22.409 106.789 21.958C106.789 21.5102 106.424 21.145 105.976 21.145Z" fill="#E6E6E6"/>
<path d="M120.903 21.145H111.992C111.544 21.145 111.179 21.5102 111.179 21.958C111.179 22.409 111.544 22.7742 111.992 22.7742H120.903C121.351 22.7742 121.716 22.409 121.716 21.958C121.716 21.5102 121.351 21.145 120.903 21.145Z" fill="#E6E6E6"/>
<path d="M135.829 21.145H126.917C126.47 21.145 126.104 21.5102 126.104 21.958C126.104 22.409 126.47 22.7742 126.917 22.7742H135.829C136.276 22.7742 136.642 22.409 136.642 21.958C136.642 21.5102 136.276 21.145 135.829 21.145Z" fill="#E6E6E6"/>
<path d="M150.526 57.719H82.3681C79.5322 57.719 77.2266 60.0246 77.2266 62.8605V67.5035C77.2266 70.3394 79.5322 72.645 82.3681 72.645H150.526C153.362 72.645 155.668 70.3394 155.668 67.5035V62.8605C155.668 60.0246 153.362 57.719 150.526 57.719Z" fill="#5516AA"/>
<path d="M36.6192 109.896L32.501 107.945C34.1901 110.302 35.6456 113.984 36.4248 116.913C37.7441 114.184 39.8709 110.845 41.9761 108.851L37.6236 109.971C40.3056 96.8262 50.3933 87.3897 61.9452 87.3897V86.3889C49.879 86.3889 39.3577 96.2206 36.6192 109.896Z" fill="#3F3D56"/>
<path d="M55.5732 129.924H29.5524C28.4487 129.924 27.5508 129.026 27.5508 127.922C27.5508 126.818 28.4487 125.92 29.5524 125.92H55.5732C56.6769 125.92 57.5748 126.818 57.5748 127.922C57.5748 129.026 56.6769 129.924 55.5732 129.924Z" fill="#E6E6E6"/>
<path d="M112.294 36.9126H115.472C116.1 36.9126 116.667 37.0642 117.171 37.3673C117.681 37.6648 118.083 38.0831 118.378 38.622C118.672 39.1553 118.819 39.77 118.819 40.4661C118.819 41.2857 118.627 41.9537 118.242 42.4702C117.862 42.9866 117.335 43.3656 116.661 43.6069C115.993 43.8483 115.217 43.969 114.333 43.969H112.285V42.7228H114.63C115.316 42.7228 115.865 42.5431 116.279 42.1839C116.698 41.8246 116.908 41.2744 116.908 40.5334C116.908 39.7924 116.701 39.2479 116.287 38.8998C115.879 38.5462 115.33 38.3694 114.639 38.3694H112.294V36.9126ZM112.294 38.2346V36.9126H119.898V38.2346H112.294ZM112.294 41.2239V39.8935H119.907V41.2239H112.294ZM112.285 43.969L113.908 43.1354L118.904 48.0277H116.423L112.285 43.969Z" fill="white"/>
<path d="M59.0612 193.717H64.0686C65.0593 193.717 65.9519 193.956 66.7463 194.433C67.5496 194.902 68.1834 195.561 68.6475 196.41C69.1116 197.251 69.3437 198.219 69.3437 199.316C69.3437 200.607 69.0402 201.66 68.4333 202.474C67.8353 203.288 67.0052 203.885 65.943 204.265C64.8898 204.645 63.6669 204.836 62.2745 204.836H59.0479V202.872H62.7431C63.8231 202.872 64.6889 202.589 65.3405 202.023C66.001 201.457 66.3313 200.59 66.3313 199.422C66.3313 198.255 66.0055 197.397 65.3539 196.848C64.7112 196.291 63.8454 196.012 62.7565 196.012H59.0612V193.717ZM59.0612 195.8V193.717H71.0441V195.8H59.0612ZM59.0612 200.51V198.414H71.0575V200.51H59.0612ZM59.0479 204.836L61.6051 203.522L69.4776 211.231H65.5681L59.0479 204.836Z" fill="white"/>
<path d="M129.916 87.0151L168.244 70.1208C168.244 70.1208 181.586 57.2022 189.808 51.5096C198.029 45.8171 200.141 50.5282 200.141 50.5282L203.072 56.226L194.41 66.7707L171.773 83.568L132.457 96.113C131.794 97.057 130.877 97.7931 129.812 98.236C128.747 98.6789 127.579 98.8103 126.443 98.6149C125.307 98.4196 124.249 97.9055 123.393 97.1324C122.537 96.3592 121.918 95.3588 121.608 94.2474C121.297 93.1359 121.308 91.959 121.639 90.8534C121.97 89.7478 122.608 88.7589 123.478 88.0015C124.348 87.2441 125.415 86.7494 126.554 86.5748C127.694 86.4002 128.859 86.5528 129.916 87.0151Z" fill="#9F616A"/>
<path d="M176.584 261.874L168.457 261.873L164.59 230.489L176.586 230.49L176.584 261.874Z" fill="#9F616A"/>
<path d="M178.657 259.218L162.651 259.217H162.651C159.945 259.217 157.351 260.293 155.438 262.208C153.525 264.123 152.451 266.72 152.45 269.429V269.761L178.657 269.761L178.657 259.218Z" fill="#2F2E41"/>
<path d="M265.231 261.874L257.104 261.873L253.237 230.489L265.232 230.49L265.231 261.874Z" fill="#9F616A"/>
<path d="M267.305 259.218L251.299 259.217H251.298C248.593 259.217 245.998 260.293 244.086 262.208C242.173 264.123 241.098 266.72 241.098 269.429V269.761L267.304 269.761L267.305 259.218Z" fill="#2F2E41"/>
<path d="M225.108 45.8966L238.588 57.4174L227.525 92.467L225.029 100.294C225.029 100.294 240.271 114.363 249.702 153.666C259.133 192.969 274.562 245.193 274.562 245.193L241.995 254.526L215.5 165.619L184.336 235.369L180.738 255.999L153.005 247.813L159.547 196.073L192.256 106.511L188.859 82.7695C188.859 82.7695 183.756 70.9193 192.62 58.3732L195.4 46.5844L205.36 44.1284L225.108 45.8966Z" fill="#2F2E41"/>
<path d="M202.712 39.6333H239.159C239.908 39.6325 240.627 39.3339 241.157 38.8032C241.687 38.2725 241.985 37.5529 241.986 36.8023V21.0748C241.986 15.4854 239.768 10.125 235.821 6.17268C231.873 2.22038 226.518 0 220.935 0C215.352 0 209.998 2.22038 206.05 6.17268C202.102 10.125 199.884 15.4854 199.884 21.0748V36.8023C199.885 37.5529 200.183 38.2725 200.713 38.8032C201.244 39.3339 201.962 39.6325 202.712 39.6333Z" fill="#2F2E41"/>
<path d="M203.068 31.2271C198.979 23.7393 201.728 14.3511 209.207 10.2579C216.686 6.16468 226.064 8.91653 230.153 16.4043C234.241 23.8921 231.492 33.2803 224.013 37.3735C216.534 41.4667 207.156 38.7149 203.068 31.2271Z" fill="#9F616A"/>
<path d="M194.904 22.6473H217.19L217.419 19.4441L218.561 22.6473H221.993L222.446 16.2986L224.711 22.6473H231.351V22.3328C231.346 17.9128 229.59 13.6754 226.468 10.55C223.346 7.42464 219.113 5.66662 214.698 5.66162H211.556C207.141 5.66661 202.909 7.42463 199.787 10.55C196.665 13.6754 194.909 17.9128 194.904 22.3328V22.6473Z" fill="#2F2E41"/>
<path d="M217.373 42.5693C217.541 42.5691 217.708 42.5543 217.873 42.5251L234.192 39.6425V12.6416H216.228L216.673 13.1607C222.861 20.3855 218.199 32.1007 214.87 38.4408C214.624 38.9052 214.515 39.4295 214.554 39.9534C214.593 40.4773 214.779 40.9794 215.091 41.402C215.352 41.7634 215.695 42.0576 216.092 42.2605C216.488 42.4635 216.928 42.5693 217.373 42.5693Z" fill="#2F2E41"/>
<path d="M243.463 71.0041L239.685 57.8866L233.334 57.0781C233.334 57.0781 228.259 56.152 228.291 66.1588C228.324 76.1657 231.407 94.4886 231.407 94.4886L223.616 135.678C222.632 136.287 221.842 137.164 221.336 138.205C220.831 139.247 220.632 140.411 220.762 141.562C220.891 142.713 221.345 143.803 222.07 144.706C222.795 145.609 223.761 146.287 224.856 146.662C225.951 147.036 227.129 147.092 228.254 146.822C229.379 146.552 230.404 145.967 231.21 145.136C232.016 144.306 232.57 143.263 232.806 142.129C233.043 140.995 232.953 139.818 232.547 138.733L244.478 99.1929L243.463 71.0041Z" fill="#9F616A"/>
</svg>
