<svg width="75" height="80" viewBox="0 0 75 80" fill="none" xmlns="http://www.w3.org/2000/svg">
<path d="M0.826968 2.51929C0.651384 2.5191 0.482892 2.58867 0.358449 2.71274C0.234006 2.8368 0.163771 3.00523 0.163147 3.18109L3.68325e-07 74.164C-0.000184563 74.3399 0.0692759 74.5087 0.193146 74.6333C0.317016 74.7579 0.485184 74.8283 0.660767 74.8289L57.7559 74.9605C57.9315 74.9606 58.1 74.8911 58.2245 74.767C58.3489 74.6429 58.4191 74.4744 58.4197 74.2985L58.5829 3.31556C58.583 3.13968 58.5136 2.9709 58.3897 2.84626C58.2658 2.72162 58.0976 2.65129 57.922 2.6507L0.826968 2.51929Z" fill="#E6E6E6"/>
<path d="M3.02347 4.72412C2.84739 4.72394 2.67841 4.79335 2.55362 4.91713C2.42882 5.04091 2.35838 5.20896 2.35776 5.38442L2.20459 71.9709C2.2044 72.1464 2.27406 72.3148 2.39829 72.4391C2.52251 72.5635 2.69116 72.6337 2.86724 72.6343L55.8741 72.7558C56.0502 72.756 56.2191 72.6866 56.3439 72.5628C56.4687 72.439 56.5392 72.271 56.5398 72.0955L56.6929 5.50902C56.6931 5.33354 56.6235 5.16514 56.4992 5.04078C56.3749 4.91642 56.2063 4.84625 56.0302 4.84566L3.02347 4.72412Z" fill="white"/>
<path d="M7.75617 7.55884C7.58058 7.55865 7.41209 7.62822 7.28765 7.75229C7.16321 7.87635 7.09297 8.04478 7.09235 8.22064L6.9292 79.2036C6.92901 79.3795 6.99848 79.5482 7.12235 79.6728C7.24622 79.7975 7.41438 79.8678 7.58997 79.8685L64.6851 80C64.8607 80.0002 65.0292 79.9306 65.1537 79.8065C65.2781 79.6824 65.3483 79.5139 65.3489 79.3381L65.5121 8.35511C65.5122 8.17923 65.4428 8.01045 65.3189 7.88581C65.195 7.76117 65.0268 7.69084 64.8512 7.69025L7.75617 7.55884Z" fill="#E6E6E6"/>
<path d="M9.95267 9.76343C9.77659 9.76324 9.60761 9.83265 9.48282 9.95644C9.35802 10.0802 9.28758 10.2483 9.28696 10.4237L9.13379 77.0102C9.1336 77.1857 9.20326 77.3541 9.32749 77.4784C9.45171 77.6028 9.62036 77.673 9.79644 77.6736L62.8033 77.7951C62.9794 77.7953 63.1483 77.7259 63.2731 77.6021C63.3979 77.4783 63.4684 77.3103 63.469 77.1348L63.6221 10.5483C63.6223 10.3728 63.5527 10.2044 63.4284 10.0801C63.3041 9.95573 63.1355 9.88556 62.9594 9.88497L9.95267 9.76343Z" fill="white"/>
<path d="M55.7079 38.7402L16.7286 38.6452C16.4669 38.6413 16.2172 38.5281 16.0336 38.3302C15.8501 38.1323 15.7474 37.8656 15.748 37.588C15.7487 37.3104 15.8524 37.0442 16.0369 36.8472C16.2213 36.6502 16.4715 36.5382 16.7332 36.5356L55.7125 36.6309C55.9742 36.6347 56.2239 36.7479 56.4075 36.9458C56.591 37.1437 56.6937 37.4104 56.6931 37.688C56.6925 37.9657 56.5887 38.2319 56.4042 38.4289C56.2198 38.6259 55.9696 38.7378 55.7079 38.7404V38.7402Z" fill="#E6E6E6"/>
<path d="M56.0334 20.1576L30.2616 20.0936C29.8985 20.0927 29.6052 19.6127 29.6064 19.0216C29.6077 18.4305 29.9031 17.952 30.2662 17.9529L56.038 18.0169C56.4011 18.0178 56.6944 18.4978 56.6931 19.0889C56.6919 19.68 56.3965 20.1591 56.0334 20.1576Z" fill="#E6E6E6"/>
<path d="M56.0334 25.8268L30.2616 25.7628C29.8985 25.7619 29.6052 25.2819 29.6064 24.6908C29.6077 24.0997 29.9031 23.6212 30.2662 23.6221L56.038 23.6861C56.4011 23.687 56.6944 24.167 56.6931 24.7581C56.6919 25.3492 56.3965 25.8277 56.0334 25.8268Z" fill="#E6E6E6"/>
<path d="M55.6854 45.0396L16.7281 44.9581C16.4665 44.9548 16.2169 44.8578 16.0335 44.6882C15.85 44.5185 15.7474 44.2899 15.748 44.0519C15.7487 43.814 15.8524 43.5858 16.0367 43.4169C16.221 43.2481 16.4711 43.1521 16.7327 43.1499L55.69 43.2314C55.9536 43.2292 56.2073 43.3223 56.3954 43.4903C56.5835 43.6583 56.6906 43.8874 56.693 44.1271C56.6955 44.3669 56.5931 44.5978 56.4084 44.7689C56.2238 44.94 55.972 45.0374 55.7084 45.0396C55.7007 45.0397 55.6931 45.0397 55.6854 45.0396Z" fill="#E6E6E6"/>
<path d="M55.6836 51.6536L16.7281 51.5584C16.4665 51.5545 16.2169 51.4414 16.0335 51.2435C15.85 51.0456 15.7474 50.7789 15.748 50.5013C15.7487 50.2237 15.8524 49.9575 16.0367 49.7605C16.221 49.5635 16.4711 49.4516 16.7326 49.449L55.6882 49.5442C55.8188 49.5427 55.9484 49.5685 56.0697 49.6201C56.1909 49.6718 56.3014 49.7484 56.3947 49.8454C56.488 49.9425 56.5624 50.0581 56.6136 50.1857C56.6648 50.3132 56.6918 50.4503 56.693 50.5889C56.6942 50.7276 56.6697 50.8652 56.6208 50.9937C56.5719 51.1223 56.4996 51.2394 56.408 51.3383C56.3164 51.4372 56.2073 51.516 56.087 51.5701C55.9668 51.6242 55.8376 51.6526 55.7069 51.6537C55.6991 51.6537 55.6914 51.6537 55.6836 51.6536V51.6536Z" fill="#E6E6E6"/>
<path d="M55.6864 57.9529L16.7281 57.8577C16.4665 57.8538 16.217 57.7407 16.0335 57.5428C15.85 57.3449 15.7474 57.0782 15.748 56.8006C15.7487 56.523 15.8524 56.2568 16.0367 56.0598C16.221 55.8628 16.4711 55.7509 16.7327 55.7483L55.691 55.8435C55.9543 55.8412 56.2078 55.9499 56.3957 56.1458C56.5836 56.3417 56.6905 56.6088 56.693 56.8883C56.6955 57.1678 56.5933 57.4369 56.409 57.6366C56.2246 57.8362 55.9731 57.95 55.7098 57.953C55.702 57.9531 55.6942 57.953 55.6864 57.9529Z" fill="#E6E6E6"/>
<path d="M36.4763 64.252L16.7261 64.1568C16.465 64.1529 16.216 64.0398 16.0329 63.8419C15.8498 63.644 15.7474 63.3773 15.748 63.0997C15.7487 62.822 15.8521 62.5559 16.0361 62.3589C16.22 62.1619 16.4696 62.0499 16.7306 62.0474L36.4809 62.1426C36.7436 62.1404 36.9964 62.2492 37.1838 62.4451C37.3712 62.641 37.4779 62.9079 37.4804 63.1874C37.4828 63.4668 37.381 63.7358 37.1971 63.9355C37.0132 64.1351 36.7624 64.2489 36.4996 64.252C36.4919 64.2521 36.4841 64.2521 36.4763 64.252Z" fill="#E6E6E6"/>
<path d="M36.4764 70.5513L16.7261 70.4561C16.465 70.4522 16.216 70.3391 16.0329 70.1412C15.8498 69.9433 15.7474 69.6766 15.748 69.399C15.7487 69.1214 15.8521 68.8552 16.0361 68.6582C16.22 68.4612 16.4696 68.3493 16.7306 68.3467L36.4809 68.4419C36.7437 68.4398 36.9965 68.5486 37.1839 68.7444C37.3712 68.9403 37.4779 69.2073 37.4804 69.4867C37.4828 69.7661 37.381 70.0351 37.1971 70.2348C37.0132 70.4344 36.7624 70.5482 36.4997 70.5514C36.4919 70.5514 36.4841 70.5514 36.4764 70.5513Z" fill="#E6E6E6"/>
<path d="M57.3218 12.1601V4.45511C57.3345 3.88278 57.2331 3.31358 57.0233 2.78001C56.8135 2.24643 56.4994 1.75893 56.099 1.34533C55.6986 0.931733 55.2197 0.600142 54.6897 0.369491C54.1596 0.13884 53.5888 0.0136448 53.0098 0.00105447C52.4308 -0.0115359 51.855 0.088727 51.3152 0.296114C50.7754 0.503501 50.2822 0.813951 49.8638 1.20974C49.4454 1.60553 49.11 2.07891 48.8766 2.60285C48.6433 3.1268 48.5166 3.69104 48.5039 4.26336H49.4742C49.5089 3.38493 49.886 2.5538 50.5265 1.94394C51.1671 1.33409 52.0214 0.992782 52.9107 0.991465H52.9613C53.8744 1.00593 54.7443 1.37809 55.38 2.02619C56.0157 2.67429 56.3652 3.54532 56.3516 4.44794V12.2216C56.3435 12.8214 56.097 13.394 55.6654 13.8156C55.2338 14.2372 54.6516 14.4739 54.0448 14.4747H54.0164C53.4038 14.4663 52.8197 14.2178 52.3924 13.7838C51.9651 13.3499 51.7296 12.766 51.7376 12.1604L51.7429 4.5073C51.7419 4.20262 51.8634 3.91002 52.0806 3.69387C52.2979 3.47772 52.5931 3.35573 52.9013 3.35473C53.2095 3.35373 53.5055 3.47381 53.7242 3.68855C53.9429 3.90329 54.0663 4.1951 54.0673 4.49978V6.72328C54.0673 6.85048 54.1184 6.97246 54.2094 7.0624C54.3004 7.15234 54.4238 7.20287 54.5525 7.20287C54.6811 7.20287 54.8045 7.15234 54.8955 7.0624C54.9865 6.97246 55.0376 6.85048 55.0376 6.72328V4.49218C55.0371 4.21539 54.9815 3.94141 54.8739 3.68587C54.7663 3.43033 54.6088 3.19825 54.4105 3.00286C54.2122 2.80748 53.9768 2.65263 53.718 2.54715C53.4591 2.44166 53.1817 2.38762 52.9017 2.3881C52.6217 2.38857 52.3445 2.44356 52.086 2.54992C51.8275 2.65629 51.5927 2.81194 51.395 3.008C51.1974 3.20405 51.0407 3.43667 50.934 3.69257C50.8273 3.94848 50.7726 4.22265 50.7731 4.49943L50.768 12.1543C50.7585 13.0132 51.094 13.8408 51.7009 14.4554C52.3078 15.0701 53.1366 15.4217 54.0055 15.4331H54.0458C54.9081 15.4318 55.7351 15.0952 56.3483 14.4959C56.9614 13.8967 57.3114 13.0831 57.3225 12.2309C57.3219 12.2062 57.3219 12.1811 57.3218 12.1601Z" fill="#5516AA"/>
<path d="M53.8585 13.5434C54.3803 13.5434 54.8033 13.0498 54.8033 12.441C54.8033 11.8322 54.3803 11.3386 53.8585 11.3386C53.3366 11.3386 52.9136 11.8322 52.9136 12.441C52.9136 13.0498 53.3366 13.5434 53.8585 13.5434Z" fill="#5516AA"/>
<path d="M15.3312 16.0631L19.5753 16.1201C20.415 16.1314 21.1688 16.3462 21.8366 16.7646C22.5121 17.1755 23.0416 17.7475 23.4253 18.4806C23.809 19.206 23.9945 20.0387 23.9819 20.9787C23.9671 22.0855 23.6977 22.9842 23.1739 23.6747C22.6577 24.3653 21.9473 24.8676 21.0426 25.1814C20.1455 25.4954 19.1069 25.6445 17.9267 25.6286L15.1919 25.5919L15.2145 23.909L18.3465 23.9511C19.2619 23.9634 19.999 23.7306 20.5578 23.2529C21.1241 22.7752 21.414 22.0361 21.4274 21.0354C21.4409 20.0348 21.1746 19.2957 20.6286 18.8183C20.0904 18.3334 19.3597 18.0848 18.4368 18.0724L15.3048 18.0303L15.3312 16.0631ZM15.3072 17.8484L15.3312 16.0631L25.4875 16.1995L25.4636 17.9848L15.3072 17.8484ZM15.253 21.8851L15.2771 20.0885L25.4448 20.225L25.4207 22.0216L15.253 21.8851ZM15.1919 25.5919L17.3744 24.4953L23.9583 31.1915L20.6447 31.147L15.1919 25.5919Z" fill="#5516AA"/>
<path fill-rule="evenodd" clip-rule="evenodd" d="M74.2395 57.4501C74.7815 57.9917 74.7815 58.8698 74.2395 59.4114L58.7692 74.8697C58.2271 75.4113 57.3484 75.4113 56.8063 74.8697L51.7454 69.8127C51.2034 69.2711 51.2034 68.393 51.7454 67.8514L52.7268 66.8707C53.2688 66.3291 54.1476 66.3291 54.6896 66.8707L57.7878 69.9665L71.2953 56.4694C71.8373 55.9278 72.7161 55.9278 73.2581 56.4694L74.2395 57.4501Z" fill="#41C0D2"/>
</svg>
