<svg width="106" height="87" viewBox="0 0 106 87" fill="none" xmlns="http://www.w3.org/2000/svg">
<path d="M74.6881 41.6177C74.1896 42.3215 73.215 42.488 72.5112 41.9896L70.5535 40.6032C69.8497 40.1047 69.6832 39.1302 70.1817 38.4264L89.5497 11.0771C90.0481 10.3733 91.0227 10.2068 91.7265 10.7052L93.6842 12.0916C94.388 12.59 94.5545 13.5646 94.0561 14.2684L74.6881 41.6177Z" fill="#5516AA" fill-opacity="0.5"/>
<path d="M93.4052 38.5978C92.9068 39.3016 91.9322 39.4681 91.2284 38.9697L89.2707 37.5833C88.5669 37.0849 88.4004 36.1103 88.8988 35.4065L100.591 18.8962C101.089 18.1924 102.064 18.0259 102.768 18.5243L104.725 19.9107C105.429 20.4091 105.596 21.3837 105.097 22.0875L93.4052 38.5978Z" fill="#5516AA" fill-opacity="0.5"/>
<path d="M28.2593 77.1172C27.7609 77.821 26.7863 77.9875 26.0825 77.4891L24.1248 76.1027C23.421 75.6043 23.2545 74.6297 23.7529 73.9259L43.121 46.5766C43.6194 45.8728 44.594 45.7063 45.2978 46.2047L47.2555 47.5911C47.9593 48.0895 48.1258 49.0641 47.6274 49.7679L28.2593 77.1172Z" fill="#41C0D2" fill-opacity="0.4"/>
<path d="M46.9765 74.0973C46.4781 74.8011 45.5035 74.9676 44.7997 74.4692L42.842 73.0828C42.1382 72.5844 41.9717 71.6098 42.4701 70.906L54.1622 54.3957C54.6606 53.6919 55.6352 53.5254 56.339 54.0238L58.2967 55.4102C59.0005 55.9086 59.167 56.8832 58.6686 57.587L46.9765 74.0973Z" fill="#41C0D2" fill-opacity="0.4"/>
<path d="M27.2681 38.0788C26.7697 38.7827 25.7951 38.9492 25.0913 38.4507L23.1336 37.0643C22.4298 36.5659 22.2633 35.5913 22.7617 34.8875L42.1298 7.53827C42.6282 6.83446 43.6028 6.66796 44.3066 7.16638L46.2643 8.55277C46.9681 9.05119 47.1346 10.0258 46.6362 10.7296L27.2681 38.0788Z" fill="#5516AA" fill-opacity="0.7"/>
<path d="M45.9853 35.059C45.4869 35.7628 44.5123 35.9293 43.8085 35.4308L41.8508 34.0444C41.147 33.546 40.9805 32.5714 41.4789 31.8676L53.171 15.3574C53.6694 14.6536 54.644 14.4871 55.3478 14.9855L57.3055 16.3719C58.0093 16.8703 58.1758 17.8449 57.6774 18.5487L45.9853 35.059Z" fill="#5516AA" fill-opacity="0.7"/>
<path d="M89.2877 57.2129L30.6928 65.8425C29.2444 66.0542 27.7715 65.6821 26.5973 64.8078C25.423 63.9336 24.6434 62.6287 24.4293 61.1794L20.2529 32.6815C20.0421 31.2316 20.4145 29.757 21.2883 28.5812C22.1621 27.4054 23.466 26.6243 24.9139 26.4094L83.5088 17.7798C84.9573 17.5681 86.4301 17.9402 87.6044 18.8145C88.7786 19.6887 89.5583 20.9936 89.7724 22.443L93.9487 50.9408C94.1595 52.3907 93.7872 53.8653 92.9134 55.0411C92.0396 56.2169 90.7357 56.998 89.2877 57.2129Z" fill="white"/>
<path d="M93.9488 50.941L93.9709 51.0918C94.1736 52.4767 93.8184 53.8857 92.9835 55.0089C92.1486 56.132 90.9023 56.8774 89.5187 57.0809L30.6308 65.7537C29.2476 65.9572 27.8404 65.6025 26.7189 64.7675C25.5973 63.9325 24.8532 62.6856 24.6502 61.301L24.6281 61.1503L93.9488 50.941Z" fill="#F2F2F2"/>
<path d="M77.4762 50.2105C76.5255 50.3505 75.728 50.1789 75.1056 49.7003C73.6989 48.6185 73.419 46.1753 73.1941 44.212C73.1287 43.6409 73.0669 43.1014 72.9839 42.6541L72.9828 42.6473C72.8583 41.7678 73.0855 40.8746 73.6151 40.1615C74.1447 39.4485 74.9338 38.9733 75.8111 38.8393L83.6926 37.6785C84.6421 37.5387 85.4387 37.71 86.0607 38.188C87.4672 39.2687 87.7478 41.7113 87.9734 43.6739C88.0391 44.2462 88.1012 44.7868 88.1847 45.2349C88.3106 46.1155 88.084 47.0104 87.5542 47.7249C87.0244 48.4394 86.2343 48.9156 85.3557 49.05L77.4762 50.2105ZM73.3135 42.5962C73.3983 43.0542 73.4606 43.5981 73.5265 44.1737C73.7442 46.0741 74.0151 48.4393 75.3095 49.4346C75.8651 49.8618 76.5579 50.0072 77.4276 49.8792L85.3067 48.7188C86.0968 48.5981 86.8076 48.1703 87.2847 47.5282C87.7617 46.8861 87.9665 46.0816 87.8546 45.2895C87.7701 44.8368 87.7074 44.2906 87.6409 43.7123C87.4226 41.8125 87.151 39.448 85.8568 38.4537C85.3018 38.0272 84.6096 37.882 83.7412 38.0099L75.8602 39.1706C75.0709 39.2913 74.3609 39.7187 73.8841 40.36C73.4073 41.0013 73.2023 41.8048 73.3135 42.5962Z" fill="#3F3D56"/>
<path d="M29.7732 54.5501C29.2773 54.6421 28.7659 54.5971 28.2937 54.4201C27.8215 54.243 27.4065 53.9406 27.0931 53.5453C26.7282 53.0731 26.4909 52.5148 26.4041 51.924C26.3173 51.3333 26.384 50.73 26.5978 50.1724C26.7885 49.694 27.1078 49.2777 27.5204 48.9697C27.9329 48.6617 28.4225 48.474 28.9349 48.4275L39.4363 46.8809C39.9402 46.779 40.4624 46.8185 40.9453 46.9949C41.4281 47.1713 41.8529 47.4777 42.1728 47.8804C42.5374 48.3527 42.7744 48.9111 42.861 49.5018C42.9475 50.0925 42.8806 50.6956 42.6667 51.253C42.2736 52.2293 41.4427 52.8422 40.3297 52.995L29.8282 54.5416C29.8098 54.5446 29.7915 54.5474 29.7732 54.5501ZM28.9318 48.766C28.4874 48.8132 28.0642 48.9807 27.7077 49.2505C27.3511 49.5203 27.0747 49.8822 26.9081 50.2974C26.7156 50.7997 26.6555 51.3432 26.7337 51.8754C26.8119 52.4076 27.0257 52.9106 27.3545 53.336C27.6381 53.6915 28.0146 53.9615 28.4422 54.1159C28.8699 54.2703 29.3319 54.303 29.7771 54.2106L40.2837 52.6633C40.737 52.6237 41.1705 52.4593 41.5363 52.1883C41.9022 51.9173 42.186 51.5503 42.3564 51.1279C42.5491 50.6257 42.6093 50.0823 42.5314 49.5502C42.4534 49.018 42.2399 48.515 41.9113 48.0895C41.6271 47.7341 41.2504 47.4641 40.8227 47.3093C40.395 47.1544 39.9329 47.1207 39.4872 47.2119L28.98 48.7593C28.9639 48.7615 28.9477 48.7637 28.9318 48.766L28.9318 48.766Z" fill="#3F3D56"/>
<path d="M79.0825 42.3825L75.7721 42.8701C75.5526 42.9024 75.3293 42.8461 75.1513 42.7136C74.9733 42.5811 74.8552 42.3832 74.823 42.1635C74.7908 41.9438 74.8472 41.7202 74.9796 41.542C75.112 41.3638 75.3098 41.2455 75.5292 41.2132L78.8397 40.7257C79.0592 40.6933 79.2825 40.7496 79.4605 40.8821C79.6384 41.0146 79.7565 41.2125 79.7887 41.4322C79.8209 41.6519 79.7646 41.8755 79.6322 42.0537C79.4997 42.2319 79.302 42.3502 79.0825 42.3825Z" fill="#5516AA"/>
<path d="M79.4707 45.0336L76.1602 45.5212C75.9408 45.5535 75.7175 45.4972 75.5395 45.3647C75.3615 45.2322 75.2434 45.0343 75.2112 44.8146C75.179 44.5949 75.2353 44.3714 75.3678 44.1932C75.5002 44.0149 75.6979 43.8966 75.9174 43.8643L79.2279 43.3768C79.4474 43.3444 79.6707 43.4007 79.8487 43.5332C80.0266 43.6657 80.1447 43.8636 80.1769 44.0833C80.2091 44.303 80.1528 44.5266 80.0203 44.7048C79.8879 44.883 79.6902 45.0013 79.4707 45.0336Z" fill="#5516AA"/>
<path d="M79.8594 47.684L76.5489 48.1716C76.4402 48.1876 76.3295 48.182 76.223 48.1552C76.1165 48.1283 76.0163 48.0807 75.9282 48.0151C75.84 47.9495 75.7657 47.8672 75.7094 47.7728C75.653 47.6784 75.6158 47.5738 75.5999 47.465C75.584 47.3562 75.5896 47.2454 75.6164 47.1387C75.6433 47.0321 75.6909 46.9318 75.7565 46.8435C75.822 46.7553 75.9043 46.6808 75.9986 46.6244C76.0929 46.568 76.1974 46.5307 76.3061 46.5147L79.6166 46.0272C79.7252 46.0111 79.836 46.0167 79.9425 46.0436C80.049 46.0704 80.1492 46.118 80.2373 46.1836C80.3255 46.2492 80.3998 46.3316 80.4561 46.4259C80.5124 46.5203 80.5496 46.6249 80.5656 46.7337C80.5815 46.8425 80.5759 46.9534 80.549 47.06C80.5222 47.1666 80.4746 47.2669 80.409 47.3552C80.3434 47.4434 80.2611 47.5179 80.1668 47.5743C80.0725 47.6307 79.9681 47.668 79.8594 47.684Z" fill="#5516AA"/>
<path d="M84.876 41.5292L81.5655 42.0168C81.4568 42.0328 81.3461 42.0272 81.2396 42.0004C81.1331 41.9735 81.0329 41.9259 80.9448 41.8603C80.8566 41.7947 80.7823 41.7124 80.726 41.618C80.6696 41.5236 80.6324 41.419 80.6165 41.3102C80.6006 41.2015 80.6062 41.0906 80.633 40.9839C80.6599 40.8773 80.7075 40.777 80.7731 40.6888C80.8386 40.6005 80.9209 40.5261 81.0152 40.4696C81.1095 40.4132 81.214 40.3759 81.3227 40.3599L84.6332 39.8724C84.8527 39.8401 85.0759 39.8963 85.2539 40.0288C85.4319 40.1613 85.55 40.3592 85.5822 40.5789C85.6144 40.7986 85.5581 41.0222 85.4256 41.2004C85.2932 41.3786 85.0955 41.4969 84.876 41.5292Z" fill="#5516AA"/>
<path d="M85.2641 44.1804L81.9537 44.6679C81.845 44.6839 81.7343 44.6783 81.6278 44.6515C81.5212 44.6246 81.4211 44.5771 81.3329 44.5114C81.2448 44.4458 81.1705 44.3635 81.1141 44.2691C81.0578 44.1747 81.0206 44.0702 81.0047 43.9614C80.9887 43.8526 80.9944 43.7417 81.0212 43.6351C81.0481 43.5284 81.0957 43.4281 81.1612 43.3399C81.2268 43.2516 81.3091 43.1772 81.4034 43.1208C81.4977 43.0643 81.6022 43.0271 81.7109 43.011L85.0213 42.5235C85.13 42.5075 85.2408 42.5131 85.3473 42.5399C85.4538 42.5668 85.554 42.6143 85.6421 42.68C85.7302 42.7456 85.8046 42.8279 85.8609 42.9223C85.9172 43.0167 85.9544 43.1212 85.9704 43.23C85.9863 43.3388 85.9807 43.4497 85.9538 43.5563C85.927 43.663 85.8794 43.7633 85.8138 43.8515C85.7482 43.9398 85.6659 44.0142 85.5716 44.0706C85.4773 44.1271 85.3728 44.1643 85.2641 44.1804Z" fill="#5516AA"/>
<path d="M85.6523 46.831L82.3419 47.3185C82.1224 47.3509 81.8991 47.2946 81.7211 47.1621C81.5431 47.0296 81.4251 46.8317 81.3929 46.612C81.3607 46.3923 81.417 46.1687 81.5494 45.9905C81.6819 45.8123 81.8796 45.694 82.0991 45.6617L85.4095 45.1741C85.5182 45.1581 85.629 45.1637 85.7355 45.1906C85.842 45.2174 85.9422 45.265 86.0303 45.3306C86.1184 45.3962 86.1928 45.4785 86.2491 45.5729C86.3054 45.6673 86.3426 45.7719 86.3585 45.8807C86.3745 45.9895 86.3689 46.1003 86.342 46.207C86.3151 46.3136 86.2676 46.4139 86.202 46.5022C86.1364 46.5904 86.0541 46.6649 85.9598 46.7213C85.8655 46.7777 85.761 46.815 85.6523 46.831Z" fill="#5516AA"/>
<path d="M90.6818 28.6466L21.3608 38.856L21.4094 39.1873L90.7304 28.978L90.6818 28.6466Z" fill="#3F3D56"/>
<path d="M89.2877 57.2129L30.6928 65.8425C29.2444 66.0542 27.7715 65.6821 26.5973 64.8078C25.423 63.9336 24.6434 62.6287 24.4293 61.1794L20.2529 32.6815C20.0421 31.2316 20.4145 29.757 21.2883 28.5812C22.1621 27.4054 23.466 26.6243 24.9139 26.4094L83.5088 17.7798C84.9573 17.5681 86.4301 17.9402 87.6044 18.8145C88.7786 19.6887 89.5583 20.9936 89.7724 22.443L93.9487 50.9408C94.1595 52.3907 93.7872 53.8653 92.9134 55.0411C92.0396 56.2169 90.7357 56.998 89.2877 57.2129ZM24.9625 26.7408C23.6023 26.9427 22.3774 27.6764 21.5566 28.781C20.7357 29.8855 20.386 31.2707 20.584 32.6327L24.7603 61.1306C24.9614 62.4921 25.6939 63.7179 26.7969 64.5392C27.9 65.3604 29.2836 65.7099 30.6442 65.5111L89.2392 56.8815C90.5994 56.6796 91.8242 55.9459 92.6451 54.8413C93.4659 53.7368 93.8157 52.3515 93.6177 50.9896L89.4413 22.4917C89.2402 21.1302 88.5078 19.9044 87.4047 19.0831C86.3016 18.2619 84.918 17.9123 83.5574 18.1112L24.9625 26.7408Z" fill="#3F3D56"/>
<g filter="url(#filter0_d_334_1961)">
<path d="M25.3477 31.732C25.1354 31.7695 24.9329 31.6278 24.8954 31.4155L24.8888 31.3782C24.8513 31.1659 24.993 30.9633 25.2053 30.9258L29.785 30.117C29.9973 30.0795 30.1998 30.2212 30.2373 30.4335L30.2439 30.4708C30.2814 30.6831 30.1397 30.8856 29.9274 30.9231L25.3477 31.732Z" fill="#5516AA"/>
<path d="M27.6356 33.3647C27.4233 33.4022 27.2208 33.2605 27.1833 33.0482L27.1767 33.0109C27.1392 32.7986 27.2809 32.5961 27.4932 32.5586L30.1339 32.0922C30.3462 32.0547 30.5487 32.1964 30.5862 32.4087L30.5928 32.446C30.6303 32.6583 30.4886 32.8608 30.2763 32.8983L27.6356 33.3647Z" fill="#5516AA"/>
<path fill-rule="evenodd" clip-rule="evenodd" d="M34.3666 29.3078L31.4818 29.8174L31.9582 32.5148L34.8614 32.002L36.1219 30.5362L34.3666 29.3078ZM34.3379 28.6531C34.4536 28.6327 34.5727 28.6591 34.669 28.7264L36.6816 30.1348C36.8963 30.2851 36.9344 30.5879 36.7635 30.7866L35.3058 32.4816C35.2392 32.5591 35.1477 32.6112 35.047 32.629L31.8676 33.1906C31.6267 33.2331 31.3969 33.0723 31.3543 32.8314L30.806 29.7268C30.7635 29.4859 30.9243 29.2561 31.1652 29.2135L34.3379 28.6531Z" fill="#5516AA"/>
</g>
<defs>
<filter id="filter0_d_334_1961" x="0.882812" y="0.646484" width="59.9878" height="52.7244" filterUnits="userSpaceOnUse" color-interpolation-filters="sRGB">
<feFlood flood-opacity="0" result="BackgroundImageFix"/>
<feColorMatrix in="SourceAlpha" type="matrix" values="0 0 0 0 0 0 0 0 0 0 0 0 0 0 0 0 0 0 127 0" result="hardAlpha"/>
<feOffset dy="-4"/>
<feGaussianBlur stdDeviation="12"/>
<feComposite in2="hardAlpha" operator="out"/>
<feColorMatrix type="matrix" values="0 0 0 0 0.368627 0 0 0 0 0.505882 0 0 0 0 0.956863 0 0 0 0.25 0"/>
<feBlend mode="normal" in2="BackgroundImageFix" result="effect1_dropShadow_334_1961"/>
<feBlend mode="normal" in="SourceGraphic" in2="effect1_dropShadow_334_1961" result="shape"/>
</filter>
</defs>
</svg>
