<svg width="117" height="75" viewBox="0 0 117 75" fill="none" xmlns="http://www.w3.org/2000/svg">
<path d="M111.011 56.6478C110.595 57.2556 110.449 57.9875 110.323 58.7477C110.198 59.6655 109.979 60.5681 109.67 61.4411C109.216 62.6717 108.431 63.7532 107.402 64.5665C106.174 61.3428 104.397 58.3564 102.148 55.7401C103.402 55.2723 104.758 55.1491 106.075 55.3835C107.002 55.5587 107.909 55.8248 108.784 56.1782C109.525 56.4531 110.241 56.6918 110.995 56.6494L111.011 56.6478Z" fill="#FFA058"/>
<path d="M97.2827 43.2695C97.2372 43.9951 97.4916 44.7018 97.7665 45.4227C98.1275 46.2759 98.4006 47.1637 98.5816 48.0722C98.822 49.3589 98.6941 50.6873 98.2125 51.9044C95.4992 49.7025 92.4325 47.9761 89.1426 46.7985C89.9938 45.7756 91.1073 45.0036 92.3638 44.5652C93.262 44.2665 94.1873 44.0561 95.1264 43.937C95.9116 43.8145 96.6592 43.6684 97.2827 43.2664V43.2695Z" fill="#FFA058"/>
<path d="M108.847 69.8147C110.158 70.0187 111.39 70.5714 112.413 71.4151C113.128 72.0193 113.781 72.6938 114.361 73.4285C114.862 74.0269 115.366 74.5876 116.029 74.9127H109.299C109.296 73.2035 109.145 71.4977 108.847 69.8147Z" fill="#FFA058"/>
<path d="M59.7801 43.2698C60.4084 43.675 61.1544 43.8179 61.9365 43.9388C62.8757 44.0572 63.801 44.2676 64.6991 44.567C65.956 45.0038 67.0698 45.7755 67.9203 46.7988C64.6303 47.9772 61.5632 49.7035 58.8488 51.9046C58.3663 50.6877 58.2394 49.3588 58.4829 48.0725C58.6624 47.1636 58.9356 46.2757 59.298 45.423C59.5728 44.71 59.8273 44.0032 59.7801 43.2698Z" fill="#FFA058"/>
<path d="M46.0557 56.6488C46.8017 56.6944 47.5273 56.4462 48.2686 56.1777C49.1462 55.823 50.0569 55.5563 50.9872 55.3814C52.3044 55.148 53.66 55.2711 54.9136 55.7379C52.6674 58.3555 50.8925 61.343 49.6679 64.5675C48.6382 63.7552 47.8538 62.6733 47.4016 61.4422C47.0908 60.5699 46.8713 59.6678 46.7467 58.7502C46.6226 57.9885 46.4719 57.2582 46.0588 56.6504L46.0557 56.6488Z" fill="#FFA058"/>
<path d="M41.0293 74.9127C41.6984 74.5876 42.2025 74.0269 42.6956 73.4285C43.2753 72.6944 43.9272 72.0204 44.6416 71.4167C45.6635 70.5715 46.8947 70.018 48.2051 69.8147C47.9081 71.4978 47.7578 73.2036 47.756 74.9127H41.0293Z" fill="#FFA058"/>
<path d="M78.5329 38.3821C78.8659 39.0339 79.4407 39.527 80.0563 40.006C80.8072 40.5663 81.4992 41.2015 82.1216 41.9017C82.9883 42.8912 83.5597 44.1041 83.7707 45.4024C80.3018 44.8229 76.7609 44.8229 73.292 45.4024C73.5043 44.1042 74.0761 42.8914 74.9426 41.9017C75.5672 41.2063 76.2596 40.575 77.0095 40.017C77.6236 39.5364 78.2 39.0433 78.5329 38.3978V38.3821Z" fill="#FFA058"/>
<path d="M72.2838 74.9288H74.5987C74.9019 73.0253 74.3066 71.5584 72.3293 71.9086C70.663 72.2039 68.8741 73.8168 67.792 74.9288L70.8436 74.9162C71.1844 74.6995 71.8487 74.4451 72.1236 74.6351C72.1721 74.6674 72.212 74.711 72.2399 74.7622C72.2678 74.8133 72.2829 74.8705 72.2838 74.9288Z" fill="#EF4F53"/>
<path d="M82.685 74.9128H85.5748C85.7115 71.5926 85.1571 68.1594 83.5755 65.1926C82.1338 62.4913 79.7512 60.6569 76.6651 60.2124C72.1608 59.5654 67.614 61.4312 63.7725 64.0807C59.587 66.9752 56.1318 70.9047 53.1147 74.9175H56.9296C60.3628 70.1744 68.2643 62.9813 74.0753 62.9295C75.927 62.9153 77.81 63.3347 79.2031 64.5518C80.2114 65.4298 81.4333 67.1323 81.3736 68.5143C81.3375 69.3263 80.5883 69.5855 79.8753 69.3263C79.3193 69.1221 78.933 68.6337 78.5372 68.1076C77.9275 67.2763 77.1018 66.6279 76.1496 66.2328C75.1974 65.8377 74.1552 65.711 73.1361 65.8664C70.5557 66.2135 67.358 68.1657 65.2959 69.9498C63.5308 71.4837 61.877 73.1411 60.3471 74.9096H64.4494C65.954 73.1427 67.5418 71.6366 69.5819 70.3959C70.2997 69.9531 71.0632 69.5892 71.8592 69.3106C73.9669 68.6039 76.0652 68.7829 76.9965 71.3398C77.364 72.3449 77.4127 73.2244 77.3106 74.8436V74.908H80.0983V74.8264C80.0785 74.0405 80.0994 73.2542 80.1612 72.4705C80.2318 71.7151 80.4753 70.9314 81.2024 70.8466C82.7353 70.5325 82.6615 73.8542 82.6913 74.919L82.685 74.9128Z" fill="#EF4F53"/>
<path d="M88.6169 74.9131H91.5334C91.6732 71.8317 91.4015 68.1802 90.3791 64.9904C90.1807 64.3693 89.9485 63.7595 89.6833 63.1639C89.0532 61.7959 88.2285 60.5263 87.2348 59.3946C86.1129 58.0891 84.7959 56.9649 83.3304 56.0619C82.89 55.7928 82.436 55.5464 81.9703 55.3237C81.5001 55.1 81.0177 54.9029 80.5254 54.7332C74.8542 52.7731 69.1186 54.1678 64.308 56.7168C63.3656 57.2131 62.4689 57.7549 61.6003 58.3219C60.7318 58.8888 59.9324 59.4856 59.1534 60.0935C58.0301 60.9804 56.9652 61.9388 55.9652 62.9628C55.7453 63.1921 55.5239 63.4262 55.3103 63.6633C54.7386 64.2915 53.8513 65.1805 54.1182 66.0977C54.3256 66.8248 55.2867 66.6112 55.6228 66.3599C56.178 66.0455 56.7009 65.6773 57.184 65.2606C57.8404 64.7203 58.4592 64.1392 59.1079 63.5911C61.5265 61.5146 64.2375 59.8053 67.1538 58.5182C67.7412 58.2669 68.328 58.0407 68.9144 57.8397C69.4986 57.6371 70.0766 57.4675 70.653 57.323C75.652 56.0556 81.105 56.877 84.5916 60.8567C87.9479 64.6904 88.5604 69.8199 88.6122 74.9179L88.6169 74.9131ZM52.4943 70.5784C52.8412 70.2473 53.163 69.8909 53.457 69.512C53.9282 68.9388 53.9706 68.3828 53.7869 67.9807C53.7186 67.8337 53.6183 67.7038 53.4932 67.6007C53.3712 67.5021 53.2283 67.4328 53.0754 67.3981C52.6969 67.3133 52.243 67.4452 51.8598 67.9006C51.4232 68.4174 50.817 69.2969 50.7007 70.079C50.6773 70.2175 50.6725 70.3585 50.6866 70.4983C50.6994 70.6262 50.7367 70.7505 50.7965 70.8643C50.8426 70.9522 50.9123 71.0255 50.9978 71.076C51.0832 71.1264 51.181 71.1521 51.2803 71.1501C51.3294 71.1548 51.3788 71.1548 51.4279 71.1501C51.4841 71.1454 51.5398 71.136 51.5944 71.1218C51.9354 71.0194 52.2449 70.8325 52.4943 70.5784Z" fill="#EF4F53"/>
<path d="M95.8937 74.914H95.9251C96.1535 74.9182 96.379 74.8624 96.5791 74.7522C96.7792 74.6419 96.9468 74.4811 97.0653 74.2857C97.1316 74.1786 97.1844 74.0636 97.2223 73.9434C97.2648 73.7959 97.2912 73.6442 97.3009 73.491V73.4565C97.5317 65.5802 95.055 59.0577 90.8428 54.6272C89.2273 52.9146 87.3203 51.5027 85.2108 50.4574H85.1935C81.6353 48.7225 77.6718 47.9895 73.7285 48.3371C72.1952 48.4636 70.678 48.7408 69.199 49.1648C65.1455 50.3365 61.3809 52.6499 58.3057 55.6889C57.7136 56.2857 57.1435 56.9139 56.6017 57.5421C56.3326 57.8562 56.0708 58.1813 55.8164 58.5174C57.9326 56.7204 60.2382 55.1589 62.6923 53.8608C63.2357 53.576 63.7822 53.31 64.3319 53.0629C64.8816 52.8158 65.4381 52.5844 66.0014 52.3687C68.0403 51.5838 70.1709 51.0618 72.3417 50.8155C74.4549 50.588 76.5889 50.6408 78.6883 50.9725C80.1762 51.1935 81.6337 51.5845 83.0324 52.1379C83.2931 52.2426 83.5481 52.3546 83.7973 52.474C84.047 52.5933 84.2857 52.7143 84.5245 52.8462C89.2361 55.3591 92.506 60.5105 93.9477 66.3309C94.5143 68.6175 94.7944 70.9657 94.7817 73.3214V73.3874C94.8053 74.0156 95.0267 74.5464 95.4099 74.7836C95.4801 74.8288 95.557 74.8627 95.6377 74.8841C95.724 74.9084 95.8134 74.9195 95.9031 74.9171L95.8937 74.914Z" fill="#EF4F53"/>
<path d="M87.4716 48.6592C99.1047 52.4081 106.978 62.9779 107.028 74.914H101.424C101.797 64.2233 97.0064 54.5723 87.4653 48.6592H87.4716Z" fill="#FFA058"/>
<path d="M18.0243 35.9542C17.461 36.7496 16.3596 36.9378 15.5642 36.3745L13.3518 34.8077C12.5565 34.2445 12.3683 33.1431 12.9316 32.3477L34.8195 1.44015C35.3827 0.644777 36.4841 0.456614 37.2795 1.01988L39.4919 2.58665C40.2873 3.14991 40.4755 4.2513 39.9122 5.04667L18.0243 35.9542Z" fill="#5516AA" fill-opacity="0.15"/>
<path d="M39.1766 32.5414C38.6134 33.3368 37.512 33.525 36.7166 32.9617L34.5042 31.3949C33.7088 30.8317 33.5207 29.7303 34.0839 28.9349L47.2973 10.2766C47.8605 9.48121 48.9619 9.29305 49.7573 9.85631L51.9697 11.4231C52.7651 11.9863 52.9532 13.0877 52.39 13.8831L39.1766 32.5414Z" fill="#5516AA" fill-opacity="0.15"/>
<path d="M71.2276 74.9999H8.18417C7.53494 74.9991 6.9125 74.7417 6.45342 74.2841C5.99434 73.8265 5.7361 73.2061 5.73535 72.5589V25.3821C5.7361 24.735 5.99434 24.1145 6.45342 23.6569C6.9125 23.1993 7.53494 22.9419 8.18417 22.9412H71.2276C71.8768 22.9419 72.4993 23.1993 72.9583 23.6569C73.4174 24.1145 73.6756 24.735 73.6764 25.3821V72.5589C73.6756 73.2061 73.4174 73.8265 72.9583 74.2841C72.4993 74.7417 71.8768 74.9991 71.2276 74.9999Z" fill="#E4E4E4"/>
<path d="M55.5563 44.5589H45.9143C45.4378 44.5589 44.9808 44.373 44.6439 44.0421C44.307 43.7111 44.1177 43.2623 44.1177 42.7942C44.1177 42.3262 44.307 41.8774 44.6439 41.5464C44.9808 41.2155 45.4378 41.0295 45.9143 41.0295H55.5563C56.0328 41.0295 56.4898 41.2155 56.8267 41.5464C57.1637 41.8774 57.3529 42.3262 57.3529 42.7942C57.3529 43.2623 57.1637 43.7111 56.8267 44.0421C56.4898 44.373 56.0328 44.5589 55.5563 44.5589Z" fill="white"/>
<path d="M47 49.4117H44.7647C44.5931 49.4117 44.4285 49.3419 44.3072 49.2178C44.1858 49.0937 44.1177 48.9254 44.1177 48.7499C44.1177 48.5744 44.1858 48.4061 44.3072 48.282C44.4285 48.1579 44.5931 48.0881 44.7647 48.0881H47C47.1716 48.0881 47.3362 48.1579 47.4576 48.282C47.5789 48.4061 47.6471 48.5744 47.6471 48.7499C47.6471 48.9254 47.5789 49.0937 47.4576 49.2178C47.3362 49.3419 47.1716 49.4117 47 49.4117Z" fill="white"/>
<path d="M56.625 49.4117H54.1103C53.9172 49.4117 53.732 49.3419 53.5955 49.2178C53.459 49.0937 53.3823 48.9254 53.3823 48.7499C53.3823 48.5744 53.459 48.4061 53.5955 48.282C53.732 48.1579 53.9172 48.0881 54.1103 48.0881H56.625C56.818 48.0881 57.0032 48.1579 57.1397 48.282C57.2762 48.4061 57.3529 48.5744 57.3529 48.7499C57.3529 48.9254 57.2762 49.0937 57.1397 49.2178C57.0032 49.3419 56.818 49.4117 56.625 49.4117Z" fill="white"/>
<path d="M51.8526 49.4117H49.6173C49.4457 49.4117 49.2811 49.3419 49.1597 49.2178C49.0384 49.0937 48.9702 48.9254 48.9702 48.7499C48.9702 48.5744 49.0384 48.4061 49.1597 48.282C49.2811 48.1579 49.4457 48.0881 49.6173 48.0881H51.8526C52.0242 48.0881 52.1887 48.1579 52.3101 48.282C52.4314 48.4061 52.4996 48.5744 52.4996 48.7499C52.4996 48.9254 52.4314 49.0937 52.3101 49.2178C52.1887 49.3419 52.0242 49.4117 51.8526 49.4117Z" fill="white"/>
<path d="M47 52.0589H44.7647C44.5931 52.0589 44.4285 51.9892 44.3072 51.8651C44.1858 51.7409 44.1177 51.5726 44.1177 51.3971C44.1177 51.2216 44.1858 51.0533 44.3072 50.9292C44.4285 50.8051 44.5931 50.7354 44.7647 50.7354H47C47.1716 50.7354 47.3362 50.8051 47.4576 50.9292C47.5789 51.0533 47.6471 51.2216 47.6471 51.3971C47.6471 51.5726 47.5789 51.7409 47.4576 51.8651C47.3362 51.9892 47.1716 52.0589 47 52.0589Z" fill="white"/>
<path d="M56.625 52.0589H54.1103C53.9172 52.0589 53.732 51.9892 53.5955 51.8651C53.459 51.7409 53.3823 51.5726 53.3823 51.3971C53.3823 51.2216 53.459 51.0533 53.5955 50.9292C53.732 50.8051 53.9172 50.7354 54.1103 50.7354H56.625C56.818 50.7354 57.0032 50.8051 57.1397 50.9292C57.2762 51.0533 57.3529 51.2216 57.3529 51.3971C57.3529 51.5726 57.2762 51.7409 57.1397 51.8651C57.0032 51.9892 56.818 52.0589 56.625 52.0589Z" fill="white"/>
<path d="M51.8526 52.0589H49.6173C49.4457 52.0589 49.2811 51.9892 49.1597 51.8651C49.0384 51.7409 48.9702 51.5726 48.9702 51.3971C48.9702 51.2216 49.0384 51.0533 49.1597 50.9292C49.2811 50.8051 49.4457 50.7354 49.6173 50.7354H51.8526C52.0242 50.7354 52.1887 50.8051 52.3101 50.9292C52.4314 51.0533 52.4996 51.2216 52.4996 51.3971C52.4996 51.5726 52.4314 51.7409 52.3101 51.8651C52.1887 51.9892 52.0242 52.0589 51.8526 52.0589Z" fill="white"/>
<path d="M47 54.7059H44.7647C44.5931 54.7059 44.4285 54.6361 44.3072 54.512C44.1858 54.3879 44.1177 54.2196 44.1177 54.0441C44.1177 53.8686 44.1858 53.7003 44.3072 53.5762C44.4285 53.452 44.5931 53.3823 44.7647 53.3823H47C47.1716 53.3823 47.3362 53.452 47.4576 53.5762C47.5789 53.7003 47.6471 53.8686 47.6471 54.0441C47.6471 54.2196 47.5789 54.3879 47.4576 54.512C47.3362 54.6361 47.1716 54.7059 47 54.7059Z" fill="white"/>
<path d="M56.625 54.7059H54.1103C53.9172 54.7059 53.732 54.6361 53.5955 54.512C53.459 54.3879 53.3823 54.2196 53.3823 54.0441C53.3823 53.8686 53.459 53.7003 53.5955 53.5762C53.732 53.452 53.9172 53.3823 54.1103 53.3823H56.625C56.818 53.3823 57.0032 53.452 57.1397 53.5762C57.2762 53.7003 57.3529 53.8686 57.3529 54.0441C57.3529 54.2196 57.2762 54.3879 57.1397 54.512C57.0032 54.6361 56.818 54.7059 56.625 54.7059Z" fill="white"/>
<path d="M51.8526 54.7059H49.6173C49.4457 54.7059 49.2811 54.6361 49.1597 54.512C49.0384 54.3879 48.9702 54.2196 48.9702 54.0441C48.9702 53.8686 49.0384 53.7003 49.1597 53.5762C49.2811 53.452 49.4457 53.3823 49.6173 53.3823H51.8526C52.0242 53.3823 52.1887 53.452 52.3101 53.5762C52.4314 53.7003 52.4996 53.8686 52.4996 54.0441C52.4996 54.2196 52.4314 54.3879 52.3101 54.512C52.1887 54.6361 52.0242 54.7059 51.8526 54.7059Z" fill="white"/>
<path d="M47 57.3531H44.7647C44.5931 57.3531 44.4285 57.2601 44.3072 57.0946C44.1858 56.9292 44.1177 56.7047 44.1177 56.4707C44.1177 56.2367 44.1858 56.0123 44.3072 55.8468C44.4285 55.6813 44.5931 55.5884 44.7647 55.5884H47C47.1716 55.5884 47.3362 55.6813 47.4576 55.8468C47.5789 56.0123 47.6471 56.2367 47.6471 56.4707C47.6471 56.7047 47.5789 56.9292 47.4576 57.0946C47.3362 57.2601 47.1716 57.3531 47 57.3531Z" fill="white"/>
<path d="M56.625 57.3531H54.1103C53.9172 57.3531 53.732 57.2601 53.5955 57.0946C53.459 56.9292 53.3823 56.7047 53.3823 56.4707C53.3823 56.2367 53.459 56.0123 53.5955 55.8468C53.732 55.6813 53.9172 55.5884 54.1103 55.5884H56.625C56.818 55.5884 57.0032 55.6813 57.1397 55.8468C57.2762 56.0123 57.3529 56.2367 57.3529 56.4707C57.3529 56.7047 57.2762 56.9292 57.1397 57.0946C57.0032 57.2601 56.818 57.3531 56.625 57.3531Z" fill="white"/>
<path d="M51.8526 57.3531H49.6173C49.4457 57.3531 49.2811 57.2601 49.1597 57.0946C49.0384 56.9292 48.9702 56.7047 48.9702 56.4707C48.9702 56.2367 49.0384 56.0123 49.1597 55.8468C49.2811 55.6813 49.4457 55.5884 49.6173 55.5884H51.8526C52.0242 55.5884 52.1887 55.6813 52.3101 55.8468C52.4314 56.0123 52.4996 56.2367 52.4996 56.4707C52.4996 56.7047 52.4314 56.9292 52.3101 57.0946C52.1887 57.2601 52.0242 57.3531 51.8526 57.3531Z" fill="white"/>
<path d="M31.7648 54.2648C35.176 54.2648 37.9413 51.4995 37.9413 48.0883C37.9413 44.6772 35.176 41.9119 31.7648 41.9119C28.3537 41.9119 25.5884 44.6772 25.5884 48.0883C25.5884 51.4995 28.3537 54.2648 31.7648 54.2648Z" fill="#CACACA"/>
<path d="M31.5444 55.5881C31.018 55.5876 30.5134 55.3978 30.1412 55.0604C29.769 54.7229 29.5597 54.2655 29.5591 53.7883V42.3894C29.5589 42.1529 29.6101 41.9187 29.7097 41.7002C29.8094 41.4817 29.9556 41.2831 30.14 41.1158C30.3244 40.9485 30.5433 40.8158 30.7843 40.7253C31.0252 40.6347 31.2835 40.5881 31.5444 40.5881C31.8052 40.5881 32.0635 40.6347 32.3045 40.7253C32.5455 40.8158 32.7644 40.9485 32.9488 41.1158C33.1331 41.2831 33.2793 41.4817 33.379 41.7002C33.4787 41.9187 33.5299 42.1529 33.5297 42.3894V53.7883C33.5291 54.2655 33.3197 54.7229 32.9475 55.0603C32.5753 55.3978 32.0707 55.5876 31.5444 55.5881Z" fill="white"/>
<path d="M47.4509 43.6765H46.0784C46.0264 43.6765 45.9765 43.6533 45.9398 43.6119C45.903 43.5706 45.8823 43.5144 45.8823 43.4559C45.8823 43.3974 45.903 43.3413 45.9398 43.3C45.9765 43.2586 46.0264 43.2354 46.0784 43.2354H47.4509C47.503 43.2354 47.5528 43.2586 47.5896 43.3C47.6264 43.3413 47.647 43.3974 47.647 43.4559C47.647 43.5144 47.6264 43.5706 47.5896 43.6119C47.5528 43.6533 47.503 43.6765 47.4509 43.6765Z" fill="#E4E4E4"/>
<path d="M55.3919 44.1177H54.0193C53.9673 44.1177 53.9174 44.0944 53.8807 44.0531C53.8439 44.0117 53.8232 43.9556 53.8232 43.8971C53.8232 43.8386 53.8439 43.7825 53.8807 43.7411C53.9174 43.6998 53.9673 43.6765 54.0193 43.6765H55.3919C55.4439 43.6765 55.4937 43.6998 55.5305 43.7411C55.5673 43.7825 55.5879 43.8386 55.5879 43.8971C55.5879 43.9556 55.5673 44.0117 55.5305 44.0531C55.4937 44.0944 55.4439 44.1177 55.3919 44.1177Z" fill="#E4E4E4"/>
<path d="M13.9244 67.649C13.9243 67.9496 13.981 68.2472 14.0911 68.5246C14.2013 68.8019 14.3627 69.0535 14.5661 69.2647H13.6127C13.3314 69.2647 13.0529 69.2064 12.793 69.0932C12.5331 68.98 12.297 68.814 12.0981 68.6048C11.8992 68.3956 11.7414 68.1473 11.6338 67.8739C11.5261 67.6006 11.4707 67.3077 11.4707 67.0118V30.4882C11.4707 30.1924 11.5261 29.8994 11.6338 29.6261C11.7414 29.3527 11.8992 29.1044 12.0981 28.8952C12.297 28.686 12.5331 28.5201 12.793 28.4068C13.0529 28.2936 13.3314 28.2354 13.6127 28.2354H15.0001C14.6729 28.4355 14.4014 28.7224 14.2126 29.0675C14.0238 29.4126 13.9245 29.8037 13.9244 30.2018L13.9244 67.649Z" fill="#CACACA"/>
<path d="M13.8758 39.0656C13.1117 38.8557 12.3448 38.6613 11.5751 38.4823C8.94288 37.8662 6.27436 37.4101 3.58479 37.1166C3.1289 36.9989 2.64404 37.0625 2.23577 37.2937C1.8275 37.5248 1.52888 37.9047 1.40491 38.3507L0.0617261 43.2112C-0.0615973 43.6592 0.00141287 44.1369 0.236927 44.5394C0.47244 44.9419 0.861212 45.2363 1.3179 45.3581L1.33602 45.3616C3.11329 45.5596 4.90743 45.8346 6.6919 46.1855C6.85153 46.2164 7.00992 46.2484 7.16949 46.2816C7.74135 46.3977 8.31159 46.5218 8.88022 46.6538C9.12928 46.7107 9.3771 46.77 9.62616 46.8304C10.296 46.994 10.9662 47.1683 11.6368 47.3532C12.3827 47.5595 13.1291 47.7796 13.8758 48.0135C13.9569 48.0373 14.0379 48.0621 14.1176 48.0882V39.1331C14.0379 39.1094 13.9569 39.0869 13.8758 39.0656Z" fill="white"/>
<path d="M13.8758 39.0656C13.1117 38.8557 12.3448 38.6613 11.5751 38.4823C8.94288 37.8662 6.27436 37.4101 3.58479 37.1166C3.1289 36.9989 2.64404 37.0625 2.23577 37.2937C1.8275 37.5248 1.52888 37.9047 1.40491 38.3507L0.0617261 43.2112C-0.0615973 43.6592 0.00141287 44.1369 0.236927 44.5394C0.47244 44.9419 0.861212 45.2363 1.3179 45.3581L1.33602 45.3616C3.11329 45.5596 4.90743 45.8346 6.6919 46.1855C6.85153 46.2164 7.00992 46.2484 7.16949 46.2816C7.74135 46.3977 8.31159 46.5218 8.88022 46.6538C9.12928 46.7107 9.3771 46.77 9.62616 46.8304C10.296 46.994 10.9662 47.1683 11.6368 47.3532C12.3827 47.5595 13.1291 47.7796 13.8758 48.0135C13.9569 48.0373 14.0379 48.0621 14.1176 48.0882V47.8381C14.0366 47.8132 13.9556 47.7883 13.8758 47.7634C13.1891 47.5488 12.5032 47.3469 11.8181 47.1576C11.5618 47.0853 11.3055 47.0154 11.0492 46.9478C10.5874 46.8257 10.1267 46.7087 9.66731 46.5969C9.42309 46.5364 9.17927 46.4783 8.93583 46.4226C8.91771 46.4179 8.89835 46.4143 8.88021 46.4096C8.4655 46.3136 8.05 46.2219 7.63372 46.1346C7.47415 46.1014 7.31458 46.0682 7.15495 46.0362C5.23022 45.645 3.29096 45.3403 1.37226 45.1269C0.979814 45.0197 0.64643 44.7649 0.444684 44.4179C0.242939 44.0708 0.189167 43.6597 0.295075 43.274L1.63827 38.4124C1.7457 38.0255 2.00527 37.6963 2.36001 37.4969C2.71474 37.2976 3.13565 37.2444 3.53035 37.349L3.54847 37.3513C6.20393 37.6405 8.83885 38.0886 11.4385 38.6933C11.4651 38.7004 11.4917 38.7064 11.5182 38.7123C12.3066 38.8972 13.0924 39.0972 13.8758 39.3121C13.9556 39.3335 14.0366 39.356 14.1176 39.3797V39.1331C14.0379 39.1094 13.9569 39.0869 13.8758 39.0656Z" fill="#5516AA"/>
<path d="M14.1176 39.0654V48.0882C14.0318 48.0612 13.9473 48.0354 13.8614 48.0096C13.1044 47.7774 12.3447 47.5587 11.5825 47.3535C10.851 47.1545 10.1169 46.9673 9.38041 46.792C9.11908 46.7306 8.85899 46.6704 8.59765 46.6114C8.58739 46.5672 8.57713 46.523 8.56819 46.4787C8.52077 46.2674 8.48368 46.0536 8.45547 45.8386C8.44265 45.7563 8.4337 45.674 8.4247 45.5905C8.2899 44.2742 8.47778 42.946 8.97333 41.7117C9.46889 40.4775 10.2584 39.3714 11.2789 38.4818C11.316 38.4474 11.3544 38.4143 11.3929 38.3823C12.2204 38.5715 13.0433 38.7763 13.8614 38.9966C13.9473 39.0175 14.0331 39.0409 14.1176 39.0654Z" fill="#5516AA"/>
<path d="M5.86874 42.755L2.71512 42.3593C2.60418 42.3453 2.49174 42.3548 2.38423 42.3871C2.27671 42.4194 2.17623 42.4739 2.08852 42.5475C2.0008 42.6211 1.92757 42.7124 1.87301 42.8161C1.81845 42.9198 1.78362 43.034 1.77052 43.152C1.75742 43.2701 1.76629 43.3897 1.79664 43.5041C1.827 43.6185 1.87822 43.7254 1.94741 43.8188C2.01659 43.9121 2.10238 43.99 2.19986 44.0481C2.29734 44.1061 2.40462 44.1432 2.51556 44.1571L5.66913 44.5529C5.8929 44.5804 6.1178 44.5124 6.2945 44.3638C6.4712 44.2151 6.58527 43.9979 6.6117 43.7599C6.63813 43.5219 6.57475 43.2824 6.43547 43.094C6.29619 42.9057 6.09238 42.7837 5.86874 42.755ZM6.38812 43.7324C6.36836 43.907 6.28432 44.0662 6.15442 44.175C6.02453 44.2838 5.85939 44.3334 5.69521 44.3128L2.54159 43.917C2.37783 43.8958 2.22864 43.8064 2.12671 43.6684C2.02478 43.5304 1.97841 43.355 1.99776 43.1807C2.01711 43.0063 2.10061 42.8473 2.22996 42.7383C2.35931 42.6294 2.52397 42.5794 2.68787 42.5994L5.84149 42.9952C6.00564 43.0163 6.15527 43.1057 6.25768 43.2438C6.3601 43.382 6.40699 43.5576 6.38812 43.7324L6.38812 43.7324Z" fill="#5516AA"/>
<path d="M14.1176 41.3638V45.5494C14.0337 45.5957 13.9464 45.6366 13.8564 45.6719C13.3878 45.8645 12.8683 45.9268 12.3617 45.8512C11.8551 45.7757 11.3835 45.5655 11.005 45.2465C10.9684 45.2165 10.9318 45.184 10.8966 45.1504C10.8613 45.1179 10.8274 45.0831 10.7948 45.0482C10.4006 44.6316 10.1728 44.1035 10.149 43.5515C10.1253 42.9995 10.3069 42.4565 10.6639 42.0124C11.021 41.5683 11.532 41.2497 12.1125 41.1092C12.6931 40.9688 13.3083 41.0149 13.8564 41.24C13.9458 41.2769 14.033 41.3183 14.1176 41.3638Z" fill="white"/>
<path d="M13.8742 44.1682C12.9167 44.3702 11.9655 44.594 11.0209 44.8395C10.668 44.9307 10.3164 45.0251 9.96592 45.1228C9.54735 45.2398 9.12876 45.361 8.71015 45.4862C8.17602 45.6463 7.64266 45.8139 7.11008 45.9888C6.95554 46.0405 6.79982 46.0922 6.64403 46.144C5.1632 46.6441 3.69212 47.1984 2.24533 47.8032C1.78492 47.9197 1.38862 48.2156 1.14272 48.6265C0.896815 49.0374 0.821223 49.53 0.932404 49.997L2.15288 55.0819C2.26584 55.5502 2.55768 55.9541 2.9644 56.2049C3.37112 56.4557 3.85949 56.5329 4.32238 56.4196L4.33943 56.4135C6.71863 55.4255 9.15367 54.5815 11.6317 53.8858C12.3715 53.6777 13.119 53.4814 13.8742 53.297C13.9558 53.2773 14.0361 53.2576 14.1176 53.2391V44.1177C14.0361 44.1325 13.9558 44.1497 13.8742 44.1682Z" fill="white"/>
<path d="M13.8742 44.1682C12.9167 44.3702 11.9655 44.594 11.0209 44.8395C10.668 44.9307 10.3164 45.0251 9.96592 45.1228C9.54735 45.2398 9.12876 45.361 8.71015 45.4862C8.17602 45.6463 7.64266 45.8139 7.11008 45.9888C6.95554 46.0405 6.79982 46.0922 6.64403 46.144C5.1632 46.6441 3.69212 47.1984 2.24533 47.8032C1.78492 47.9197 1.38862 48.2156 1.14272 48.6265C0.896815 49.0374 0.821223 49.53 0.932404 49.997L2.15288 55.0819C2.26584 55.5502 2.55768 55.9541 2.9644 56.2049C3.37112 56.4557 3.85949 56.5329 4.32238 56.4196L4.33943 56.4135C6.71863 55.4255 9.15367 54.5815 11.6317 53.8858C12.3715 53.6777 13.119 53.4814 13.8742 53.297C13.9558 53.2773 14.0361 53.2576 14.1176 53.2391V52.9854C14.0361 53.0051 13.9558 53.0248 13.8742 53.0445C13.8134 53.0593 13.7514 53.0741 13.6905 53.0889C12.9751 53.265 12.2673 53.4514 11.5672 53.6481C11.5489 53.653 11.5295 53.6592 11.5112 53.6641C9.0457 54.3582 6.62289 55.1994 4.25548 56.1831C3.85626 56.2779 3.43623 56.2092 3.08671 55.9922C2.73719 55.7751 2.48642 55.4272 2.38893 55.024L1.1697 49.9391C1.07294 49.5342 1.13876 49.107 1.35272 48.7512C1.56668 48.3953 1.91131 48.1399 2.31104 48.041L2.32928 48.0348C3.90506 47.3745 5.50875 46.7759 7.12469 46.2438C7.28042 46.192 7.4362 46.1415 7.59192 46.091C7.97401 45.9691 8.3565 45.8504 8.73938 45.735C9.14334 45.6131 9.5469 45.4956 9.95006 45.3827C9.97686 45.3753 10.0036 45.3679 10.0304 45.3606C10.4247 45.2509 10.8201 45.145 11.2168 45.0428C12.0965 44.8161 12.9823 44.6079 13.8742 44.4182C13.9546 44.401 14.0361 44.3837 14.1176 44.3677V44.1177C14.0361 44.1325 13.9558 44.1497 13.8742 44.1682Z" fill="#41C0D2"/>
<path d="M14.1176 44.1177V53.1558C14.0333 53.1746 13.9477 53.1935 13.8621 53.2135C13.0623 53.4043 12.266 53.6077 11.473 53.8235C11.4411 53.7884 11.4104 53.7533 11.381 53.7181C10.5532 52.7661 9.94494 51.6493 9.59805 50.4445C9.25115 49.2397 9.17383 47.9753 9.37139 46.7384C9.37782 46.697 9.38549 46.6543 9.39316 46.6129C9.39952 46.5727 9.4072 46.5313 9.41487 46.4911C9.49374 46.0801 9.60303 45.6753 9.74187 45.2799C9.75853 45.2322 9.77512 45.1845 9.79303 45.1368C10.1827 45.0314 10.5736 44.9302 10.9658 44.8331C11.9253 44.5896 12.8907 44.3683 13.8621 44.1691C13.9464 44.1503 14.032 44.134 14.1176 44.1177Z" fill="#41C0D2"/>
<path d="M8.3176 52.1839C8.22871 51.9609 8.05684 51.7831 7.8397 51.6894C7.62257 51.5957 7.37789 51.5937 7.15934 51.684L4.08289 52.9573C3.86472 53.0481 3.69076 53.2236 3.5992 53.4452C3.50764 53.6668 3.50596 53.9165 3.59454 54.1394C3.68312 54.3623 3.85471 54.5402 4.07164 54.634C4.28857 54.7278 4.5331 54.7299 4.75154 54.6398L7.82799 53.3665C8.04615 53.2755 8.22015 53.1 8.3119 52.8784C8.40366 52.6567 8.4057 52.407 8.3176 52.1839ZM7.73907 53.1413L4.66262 54.4159C4.50232 54.4821 4.32286 54.4806 4.16363 54.4117C4.00441 54.3429 3.87846 54.2124 3.81343 54.0488C3.7484 53.8852 3.74962 53.702 3.81681 53.5393C3.884 53.3767 4.01168 53.2479 4.1718 53.1813L7.24825 51.9079C7.40845 51.8414 7.58794 51.8427 7.74724 51.9114C7.90654 51.98 8.0326 52.1105 8.09769 52.274C8.16277 52.4376 8.16156 52.6209 8.0943 52.7835C8.02705 52.9462 7.89927 53.0749 7.73907 53.1413Z" fill="#41C0D2"/>
<path d="M14.1175 46.8352V51.546C14.0361 51.5662 13.9537 51.5822 13.8706 51.5941C13.3748 51.6617 12.8696 51.5826 12.4207 51.3672C11.9717 51.1518 11.5998 50.8099 11.3531 50.3861C11.1065 49.9622 10.9966 49.476 11.0377 48.9906C11.0789 48.5052 11.2691 48.043 11.5838 47.6642C11.6122 47.6294 11.6418 47.5957 11.6739 47.5633C11.7035 47.5296 11.7356 47.4972 11.769 47.466C12.042 47.2032 12.3737 47.0054 12.7383 46.8878C13.1028 46.7703 13.4903 46.7363 13.8706 46.7884C13.9538 46.7992 14.0362 46.8149 14.1175 46.8352Z" fill="white"/>
<path d="M13.6763 38.3546V50.4324C13.7572 50.4058 13.838 50.3804 13.9176 50.3562V38.4647C13.8368 38.4272 13.7572 38.3909 13.6763 38.3546ZM13.6763 38.3546V50.4324C13.7572 50.4058 13.838 50.3804 13.9176 50.3562V38.4647C13.8368 38.4272 13.7572 38.3909 13.6763 38.3546ZM13.6763 38.3546V50.4324C13.7572 50.4058 13.838 50.3804 13.9176 50.3562V38.4647C13.8368 38.4272 13.7572 38.3909 13.6763 38.3546ZM13.6763 39.2367V53.1539C13.7572 53.1345 13.838 53.1164 13.9176 53.0982V39.3057C13.8368 39.2815 13.7559 39.2585 13.6763 39.2367V39.2367ZM13.6763 39.2367V53.1539C13.7572 53.1345 13.838 53.1164 13.9176 53.0982V39.3057C13.8368 39.2815 13.7559 39.2585 13.6763 39.2367V39.2367ZM13.6763 39.2367V53.1539C13.7572 53.1345 13.838 53.1164 13.9176 53.0982V39.3057C13.8368 39.2815 13.7559 39.2585 13.6763 39.2367V39.2367ZM13.6763 39.2367V53.1539C13.7572 53.1345 13.838 53.1164 13.9176 53.0982V39.3057C13.8368 39.2815 13.7559 39.2585 13.6763 39.2367V39.2367ZM13.6763 39.2367V53.2797C13.7572 53.2604 13.8368 53.241 13.9176 53.2228V39.3057C13.8368 39.2815 13.7559 39.2585 13.6763 39.2367V39.2367ZM66.3193 27.7942H16.1814C15.5174 27.7953 14.8808 28.0603 14.4112 28.5312C13.9417 29.0021 13.6774 29.6404 13.6763 30.3063V67.6361C13.6774 68.3019 13.9417 68.9401 14.4113 69.4108C14.8809 69.8815 15.5175 70.1462 16.1814 70.147H66.3193C66.9831 70.1462 67.6195 69.8814 68.0889 69.4107C68.5583 68.94 68.8224 68.3018 68.8232 67.6361V30.3063C68.8227 29.6404 68.5587 29.002 68.0893 28.531C67.6199 28.0601 66.9833 27.7951 66.3193 27.7942V27.7942ZM68.5819 67.6361C68.5812 68.2377 68.3427 68.8144 67.9185 69.2398C67.4943 69.6652 66.9192 69.9044 66.3193 69.905H16.1814C15.5814 69.9045 15.0061 69.6653 14.5817 69.2399C14.1573 68.8146 13.9185 68.2378 13.9176 67.6361V30.3063C13.9185 29.7045 14.1573 29.1276 14.5817 28.7021C15.006 28.2766 15.5813 28.0371 16.1814 28.0362H66.3193C66.9193 28.0369 67.4946 28.2763 67.9188 28.7019C68.343 29.1276 68.5815 29.7046 68.5819 30.3063V67.6361ZM13.6763 39.2367V53.0316C13.7572 53.0123 13.8368 52.9929 13.9176 52.9736V39.3057C13.8368 39.2815 13.7559 39.2585 13.6763 39.2367V39.2367ZM13.6763 39.2367V53.1539C13.7572 53.1345 13.838 53.1164 13.9176 53.0982V39.3057C13.8368 39.2815 13.7559 39.2585 13.6763 39.2367V39.2367ZM13.6763 39.2367V53.1539C13.7572 53.1345 13.838 53.1164 13.9176 53.0982V39.3057C13.8368 39.2815 13.7559 39.2585 13.6763 39.2367V39.2367ZM13.6763 39.2367V53.1539C13.7572 53.1345 13.838 53.1164 13.9176 53.0982V39.3057C13.8368 39.2815 13.7559 39.2585 13.6763 39.2367V39.2367ZM13.6763 38.3546V50.4324C13.7572 50.4058 13.838 50.3804 13.9176 50.3562V38.4647C13.8368 38.4272 13.7572 38.3909 13.6763 38.3546ZM13.6763 38.3546V50.4324C13.7572 50.4058 13.838 50.3804 13.9176 50.3562V38.4647C13.8368 38.4272 13.7572 38.3909 13.6763 38.3546Z" fill="#2F2E41"/>
</svg>
