<svg width="70" height="35" viewBox="0 0 70 35" fill="none" xmlns="http://www.w3.org/2000/svg">
<path d="M4.49361 17.9982C6.47829 17.9982 7.92623 18.3794 8.83744 19.1419C9.74864 19.9044 10.2042 21.0795 10.2042 22.667C10.2042 24.2545 9.73616 25.4171 8.79999 26.1546C7.8763 26.8921 6.45333 27.2608 4.53106 27.2608H2.20936V30.1047C2.20936 30.657 1.76164 31.1047 1.20936 31.1047H1C0.447716 31.1047 0 30.657 0 30.1047L0 18.9982C0 18.4459 0.447715 17.9982 1 17.9982H4.49361ZM4.77446 25.2546C7.26467 24.5608 6.82779 25.0233 7.26467 24.5608C7.71404 24.0858 7.93872 23.3983 7.93872 22.4983C7.93872 21.5857 7.65786 20.942 7.09616 20.567C6.53446 20.192 5.65446 20.0045 4.45617 20.0045H2.20936V25.2546H4.77446Z" fill="#5516AA"/>
<path d="M17.7234 23.0983C16.6874 23.0983 15.9073 23.4358 15.383 24.1108C14.8588 24.7858 14.5966 25.6921 14.5966 26.8296V30.1047C14.5966 30.657 14.1489 31.1047 13.5966 31.1047H13.4996C12.9473 31.1047 12.4996 30.657 12.4996 30.1047V22.1295C12.4996 21.5772 12.9473 21.1295 13.4996 21.1295H13.5966C14.1489 21.1295 14.5966 21.5772 14.5966 22.1295V23.1358C14.9337 22.5108 15.3893 21.9982 15.9634 21.5982C16.244 21.4069 16.5318 21.2599 16.8267 21.1572C17.3521 20.9743 17.8211 21.4336 17.826 21.9899L17.8348 22.9859C17.8353 23.0478 17.7853 23.0983 17.7234 23.0983Z" fill="#5516AA"/>
<path d="M22.2631 28.4796C22.8623 29.0796 23.6175 29.3796 24.5287 29.3796C25.4399 29.3796 26.1888 29.0796 26.7755 28.4796C27.3746 27.8671 27.6742 27.0796 27.6742 26.1171C27.6742 25.1546 27.3746 24.3733 26.7755 23.7733C26.1888 23.1608 25.4399 22.8545 24.5287 22.8545C23.6175 22.8545 22.8623 23.1608 22.2631 23.7733C21.6765 24.3733 21.3831 25.1546 21.3831 26.1171C21.3831 27.0796 21.6765 27.8671 22.2631 28.4796ZM28.2733 29.7734C27.2748 30.7609 26.0265 31.2547 24.5287 31.2547C23.0308 31.2547 21.7826 30.7609 20.784 29.7734C19.7854 28.7734 19.2861 27.5546 19.2861 26.1171C19.2861 24.6795 19.7854 23.467 20.784 22.4795C21.7826 21.4795 23.0308 20.9795 24.5287 20.9795C26.0265 20.9795 27.2748 21.4795 28.2733 22.4795C29.2719 23.467 29.7712 24.6795 29.7712 26.1171C29.7712 27.5546 29.2719 28.7734 28.2733 29.7734Z" fill="#5516AA"/>
<path d="M37.4917 20.9795C38.8273 20.9795 39.9694 21.442 40.9181 22.367C41.8667 23.292 42.341 24.5233 42.341 26.0608C42.341 27.5984 41.8667 28.8484 40.9181 29.8109C39.9819 30.7734 38.8834 31.2547 37.6227 31.2547C36.3745 31.2547 35.2511 30.7047 34.2525 29.6046V33.7422C34.2525 34.2945 33.8048 34.7422 33.2525 34.7422H33.1555C32.6032 34.7422 32.1555 34.2945 32.1555 33.7422V22.1295C32.1555 21.5772 32.6032 21.1295 33.1555 21.1295H33.2525C33.8048 21.1295 34.2525 21.5772 34.2525 22.1295V22.8733C35.0764 21.6107 36.1561 20.9795 37.4917 20.9795ZM34.2151 26.1358C34.2151 27.0858 34.5022 27.8671 35.0764 28.4796C35.6505 29.0796 36.3496 29.3796 37.1734 29.3796C37.9972 29.3796 38.7149 29.0796 39.3266 28.4796C39.9382 27.8796 40.244 27.1046 40.244 26.1546C40.244 25.1921 39.9444 24.3983 39.3453 23.7733C38.7461 23.1358 38.0284 22.817 37.1921 22.817C36.3558 22.817 35.6505 23.1358 35.0764 23.7733C34.5022 24.3983 34.2151 25.1858 34.2151 26.1358Z" fill="#5516AA"/>
<path d="M54.0034 27.0358H46.1957C46.2456 27.7609 46.5764 28.3484 47.188 28.7984C47.7997 29.2359 48.4987 29.4546 49.2851 29.4546C50.1259 29.4546 50.8307 29.276 51.3997 28.9187C51.8376 28.6437 52.4429 28.6149 52.7915 28.9968C53.0939 29.328 53.0911 29.8442 52.7363 30.1185C51.7569 30.876 50.5566 31.2547 49.1353 31.2547C47.7373 31.2547 46.5452 30.7922 45.5591 29.8672C44.5855 28.9296 44.0987 27.6796 44.0987 26.1171C44.0987 24.542 44.598 23.292 45.5966 22.367C46.5951 21.442 47.7685 20.9795 49.1166 20.9795C50.4771 20.9795 51.6317 21.392 52.5804 22.217C53.529 23.0295 54.0034 24.1545 54.0034 25.5921V27.0358ZM46.1957 25.3858H51.9063C51.9063 24.5483 51.6442 23.9045 51.12 23.4545C50.5957 23.0045 49.9466 22.7795 49.1727 22.7795C48.4113 22.7795 47.7248 23.017 47.1132 23.492C46.5015 23.9545 46.1957 24.5858 46.1957 25.3858Z" fill="#5516AA"/>
<path d="M58.4064 30.1047C58.4064 30.657 57.9587 31.1047 57.4064 31.1047H57.3094C56.7571 31.1047 56.3094 30.657 56.3094 30.1047V18.1919C56.3094 17.6396 56.7571 17.1919 57.3094 17.1919H57.4064C57.9587 17.1919 58.4064 17.6396 58.4064 18.1919V30.1047Z" fill="#5516AA"/>
<path d="M63.5444 25.0608C63.5444 25.6131 63.0967 26.0608 62.5444 26.0608H62.4474C61.8951 26.0608 61.4474 25.6131 61.4474 25.0608V18.1919C61.4474 17.6396 61.8951 17.1919 62.4474 17.1919H62.5444C63.0967 17.1919 63.5444 17.6396 63.5444 18.1919V25.0608Z" fill="#5516AA"/>
<path fill-rule="evenodd" clip-rule="evenodd" d="M56.3106 6.27374L56.3106 13.7779L63.3273 13.7779V6.2261L60.1912 2.39312L56.3106 6.27374ZM54.6463 6.0544C54.6463 5.75345 54.7659 5.46483 54.9787 5.25203L59.4282 0.802558C59.9029 0.327859 60.6836 0.366803 61.1087 0.88638L64.7351 5.31853C64.9009 5.52126 64.9915 5.77513 64.9915 6.03707L64.9915 14.3074C64.9915 14.9341 64.4835 15.4421 63.8568 15.4421L55.7811 15.4421C55.1544 15.4421 54.6463 14.9341 54.6463 14.3074L54.6463 6.0544Z" fill="#41C0D2"/>
</svg>
