<svg width="24" height="24" viewBox="0 0 24 24" fill="none" xmlns="http://www.w3.org/2000/svg">
<path d="M18.5 5V8.5L11.5 9V16H18.5V19.5H4V5H18.5Z" fill="#F6F0FE"/>
<path d="M19.4198 7.90426V5.82442C19.4198 4.82099 18.5988 4 17.5954 4H4.82442C4.34056 4 3.87651 4.19222 3.53436 4.53436C3.19222 4.87651 3 5.34056 3 5.82442V18.5954C3 19.0792 3.19222 19.5433 3.53436 19.8854C3.87651 20.2276 4.34056 20.4198 4.82442 20.4198H17.5954C18.5988 20.4198 19.4198 19.5988 19.4198 18.5954V16.5155C19.6955 16.3563 19.9248 16.1278 20.0848 15.8525C20.2449 15.5773 20.3301 15.2649 20.332 14.9465V9.47327C20.3301 9.15488 20.2449 8.84254 20.0848 8.56729C19.9248 8.29203 19.6955 8.06345 19.4198 7.90426ZM18.5076 9.47327V14.9465H12.1221V9.47327H18.5076ZM4.82442 18.5954V5.82442H17.5954V7.64884H12.1221C11.1187 7.64884 10.2977 8.46983 10.2977 9.47327V14.9465C10.2977 15.95 11.1187 16.771 12.1221 16.771H17.5954V18.5954H4.82442Z" fill="#5516AA"/>
<path fill-rule="evenodd" clip-rule="evenodd" d="M19.2198 8.01974V5.82442C19.2198 4.93145 18.4884 4.2 17.5954 4.2H4.82442C4.3936 4.2 3.98042 4.37114 3.67578 4.67578C3.37114 4.98042 3.2 5.3936 3.2 5.82442V18.5954C3.2 19.0262 3.37114 19.4394 3.67578 19.744C3.98042 20.0487 4.3936 20.2198 4.82442 20.2198H17.5954C18.4884 20.2198 19.2198 19.4884 19.2198 18.5954V16.4001L19.3198 16.3423C19.5653 16.2006 19.7695 15.9971 19.9119 15.752C20.0543 15.5071 20.1302 15.2292 20.132 14.9459V9.47386C20.1302 9.19059 20.0543 8.91271 19.9119 8.66781C19.7695 8.42273 19.5653 8.21921 19.3198 8.07747L19.2198 8.01974ZM20.332 14.9465C20.3301 15.2649 20.2449 15.5773 20.0848 15.8525C19.9248 16.1278 19.6955 16.3563 19.4198 16.5155V18.5954C19.4198 19.5988 18.5988 20.4198 17.5954 20.4198H4.82442C4.34056 20.4198 3.87651 20.2276 3.53436 19.8854C3.19222 19.5433 3 19.0792 3 18.5954V5.82442C3 5.34056 3.19222 4.87651 3.53436 4.53436C3.87651 4.19222 4.34056 4 4.82442 4H17.5954C18.5988 4 19.4198 4.82099 19.4198 5.82442V7.90426C19.6955 8.06345 19.9248 8.29203 20.0848 8.56729C20.2449 8.84254 20.3301 9.15488 20.332 9.47327V14.9465ZM18.7076 9.27327V15.1465H11.9221V9.27327H18.7076ZM4.62442 18.7954V5.62442H17.7954V7.84884H12.1221C11.2291 7.84884 10.4977 8.58029 10.4977 9.47327V14.9465C10.4977 15.8395 11.2291 16.571 12.1221 16.571H17.7954V18.7954H4.62442ZM18.5076 9.47327H12.1221V14.9465H18.5076V9.47327ZM4.82442 18.5954H17.5954V16.771H12.1221C11.1187 16.771 10.2977 15.95 10.2977 14.9465V9.47327C10.2977 8.46983 11.1187 7.64884 12.1221 7.64884H17.5954V5.82442H4.82442V18.5954Z" fill="white"/>
<path d="M14.8588 13.5784C15.6145 13.5784 16.2271 12.9658 16.2271 12.2101C16.2271 11.4544 15.6145 10.8417 14.8588 10.8417C14.1031 10.8417 13.4905 11.4544 13.4905 12.2101C13.4905 12.9658 14.1031 13.5784 14.8588 13.5784Z" fill="#5516AA"/>
<path fill-rule="evenodd" clip-rule="evenodd" d="M14.8588 13.3784C15.504 13.3784 16.0271 12.8553 16.0271 12.2101C16.0271 11.5648 15.504 11.0417 14.8588 11.0417C14.2136 11.0417 13.6905 11.5648 13.6905 12.2101C13.6905 12.8553 14.2136 13.3784 14.8588 13.3784ZM16.2271 12.2101C16.2271 12.9658 15.6145 13.5784 14.8588 13.5784C14.1031 13.5784 13.4905 12.9658 13.4905 12.2101C13.4905 11.4544 14.1031 10.8417 14.8588 10.8417C15.6145 10.8417 16.2271 11.4544 16.2271 12.2101Z" fill="white"/>
</svg>
