<svg width="24" height="24" viewBox="0 0 24 24" fill="none" xmlns="http://www.w3.org/2000/svg">
<circle cx="11" cy="8" r="3" fill="#F6F0FE"/>
<path d="M11.5 4C10.6759 4 9.87033 4.23151 9.18512 4.66525C8.49992 5.09899 7.96587 5.71549 7.6505 6.43678C7.33514 7.15806 7.25262 7.95175 7.41339 8.71746C7.57417 9.48318 7.971 10.1865 8.55372 10.7386C9.13644 11.2906 9.87887 11.6666 10.6871 11.8189C11.4954 11.9712 12.3332 11.893 13.0945 11.5943C13.8559 11.2955 14.5066 10.7896 14.9645 10.1404C15.4223 9.49127 15.6667 8.72808 15.6667 7.94737C15.6667 6.90046 15.2277 5.89643 14.4463 5.15616C13.6649 4.41588 12.6051 4 11.5 4ZM11.5 10.3158C11.0055 10.3158 10.5222 10.1769 10.1111 9.91664C9.69995 9.65639 9.37952 9.2865 9.1903 8.85372C9.00108 8.42095 8.95157 7.94474 9.04804 7.48531C9.1445 7.02588 9.3826 6.60387 9.73223 6.27264C10.0819 5.94141 10.5273 5.71584 11.0123 5.62446C11.4972 5.53307 11.9999 5.57997 12.4567 5.75923C12.9135 5.93849 13.304 6.24206 13.5787 6.63154C13.8534 7.02103 14 7.47894 14 7.94737C14 8.57551 13.7366 9.17793 13.2678 9.6221C12.7989 10.0663 12.163 10.3158 11.5 10.3158ZM18.2105 19C18.6465 19 19 18.6465 19 18.2105C19 16.7449 18.3854 15.3392 17.2915 14.3028C16.1975 13.2664 14.7138 12.6842 13.1667 12.6842H9.83333C8.28624 12.6842 6.80251 13.2664 5.70854 14.3028C4.61458 15.3392 4 16.7449 4 18.2105C4 18.6465 4.35346 19 4.78947 19H4.87719C5.31321 19 5.66667 18.6465 5.66667 18.2105C5.66667 17.1636 6.10565 16.1596 6.88706 15.4193C7.66846 14.679 8.72826 14.2632 9.83333 14.2632H13.1667C14.2717 14.2632 15.3315 14.679 16.1129 15.4193C16.8943 16.1596 17.3333 17.1636 17.3333 18.2105C17.3333 18.6465 17.6868 19 18.1228 19H18.2105Z" fill="#5516AA"/>
</svg>
