<svg width="19" height="20" viewBox="0 0 19 20" fill="none" xmlns="http://www.w3.org/2000/svg">
<path d="M6.5 12.5V18.5H12.5V12.5H6.5Z" fill="#F6F0FE"/>
<path d="M2.49992 20H16.4994C17.0298 20 17.5385 19.7893 17.9135 19.4142C18.2886 19.0392 18.4993 18.5305 18.4993 18.0001V9.00043C18.5 8.86883 18.4748 8.73838 18.4251 8.61654C18.3753 8.49471 18.302 8.3839 18.2093 8.29046L10.2096 0.290781C10.0223 0.104538 9.76882 0 9.50464 0C9.24047 0 8.98703 0.104538 8.79967 0.290781L0.799988 8.29046C0.705504 8.38307 0.630337 8.49352 0.578842 8.61539C0.527348 8.73726 0.500549 8.86813 0.5 9.00043V18.0001C0.5 18.5305 0.710705 19.0392 1.08576 19.4142C1.46082 19.7893 1.96951 20 2.49992 20ZM7.49972 18.0001V13.0003H11.4996V18.0001H7.49972ZM2.49992 9.41042L9.49964 2.4107L16.4994 9.41042V18.0001H13.4995V13.0003C13.4995 12.4699 13.2888 11.9612 12.9137 11.5861C12.5387 11.2111 12.03 11.0004 11.4996 11.0004H7.49972C6.96931 11.0004 6.46062 11.2111 6.08557 11.5861C5.71051 11.9612 5.4998 12.4699 5.4998 13.0003V18.0001H2.49992V9.41042Z" fill="#5516AA"/>
</svg>
