<svg width="24" height="24" viewBox="0 0 24 24" fill="none" xmlns="http://www.w3.org/2000/svg">
<path d="M8.70344 6.85718H5.5386C4.97902 6.85718 4.44236 7.07947 4.04668 7.47515C3.651 7.87083 3.42871 8.40749 3.42871 8.96707V18.4616C3.42871 19.0212 3.651 19.5578 4.04668 19.9535C4.44236 20.3492 4.97902 20.5715 5.5386 20.5715H15.0331C15.5927 20.5715 16.1293 20.3492 16.525 19.9535C16.9207 19.5578 17.143 19.0212 17.143 18.4616V15.2967" stroke="#5516AA" stroke-width="1.5" stroke-linecap="round" stroke-linejoin="round"/>
<path d="M8.57129 15.4287H11.7534L20.7694 6.41268C21.1914 5.99071 21.4284 5.41839 21.4284 4.82163C21.4284 4.22487 21.1914 3.65255 20.7694 3.23057C20.3474 2.8086 19.7751 2.57153 19.1783 2.57153C18.5816 2.57153 18.0093 2.8086 17.5873 3.23057L8.57129 12.2466V15.4287Z" stroke="#5516AA" stroke-width="1.5" stroke-linecap="round" stroke-linejoin="round"/>
<path d="M16.2856 5.14282L18.8571 7.71425" stroke="#5516AA" stroke-width="1.5" stroke-linecap="round" stroke-linejoin="round"/>
</svg>
