<svg width="18" height="14" viewBox="0 0 18 14" fill="none" xmlns="http://www.w3.org/2000/svg">
<path d="M16.7143 0H1.28571C0.944722 0 0.617695 0.137922 0.376577 0.383424C0.135459 0.628926 0 0.961898 0 1.30909V11.7818C0 12.129 0.135459 12.462 0.376577 12.7075C0.617695 12.953 0.944722 13.0909 1.28571 13.0909H16.7143C17.0553 13.0909 17.3823 12.953 17.6234 12.7075C17.8645 12.462 18 12.129 18 11.7818V1.30909C18 0.961898 17.8645 0.628926 17.6234 0.383424C17.3823 0.137922 17.0553 0 16.7143 0ZM15.3 1.30909L9 5.74691L2.7 1.30909H15.3ZM1.28571 11.7818V1.90473L8.63357 7.08218C8.74118 7.15819 8.86903 7.19892 9 7.19892C9.13097 7.19892 9.25882 7.15819 9.36643 7.08218L16.7143 1.90473V11.7818H1.28571Z" fill="#1C1D21"/>
</svg>
