<svg width="24" height="24" viewBox="0 0 24 24" fill="none" xmlns="http://www.w3.org/2000/svg">
<circle cx="11.5" cy="11.5" r="7.75" fill="#F6F0FE" stroke="#5516AA" stroke-width="1.5"/>
<path fill-rule="evenodd" clip-rule="evenodd" d="M10.708 13.6816H11.9663V13.5399C11.9663 13.2938 11.9979 13.0666 12.0599 12.8576C12.1181 12.6614 12.2321 12.4819 12.4078 12.319L12.4083 12.3184C12.6353 12.1056 12.8498 11.8821 13.052 11.6479C13.2586 11.4086 13.4278 11.1522 13.559 10.8787C13.698 10.5929 13.7668 10.2819 13.7668 9.94777C13.7668 9.52039 13.6809 9.14334 13.5033 8.8218C13.3253 8.49604 13.0652 8.2459 12.7269 8.07285C12.3916 7.89956 11.9913 7.8163 11.5316 7.8163C11.1123 7.8163 10.7287 7.89482 10.3834 8.05455C10.0367 8.21493 9.75807 8.44783 9.55103 8.75287L9.55037 8.75387C9.34462 9.06264 9.24089 9.42866 9.23351 9.84578L9.23096 9.98995H10.4831L10.4851 9.8503C10.4883 9.62663 10.5407 9.46098 10.6298 9.34113L10.6308 9.33988C10.7263 9.20842 10.8513 9.11125 11.0089 9.04756C11.1729 8.9813 11.3467 8.94792 11.5316 8.94792C11.7581 8.94792 11.9362 8.99165 12.0733 9.07046L12.0745 9.07109C12.2164 9.15098 12.3218 9.26358 12.393 9.41212L12.3941 9.41416C12.4694 9.56497 12.51 9.75001 12.51 9.97395C12.51 10.1947 12.4711 10.3764 12.399 10.5238C12.3217 10.6783 12.2197 10.8243 12.0923 10.9616C11.9608 11.1036 11.8146 11.2568 11.6549 11.4201C11.4324 11.6497 11.2518 11.857 11.1144 12.0415C10.9711 12.2338 10.8674 12.4471 10.8035 12.6803L10.8031 12.6819C10.7432 12.9103 10.713 13.197 10.7095 13.5384L10.708 13.6816ZM13.6252 9.94777C13.6252 10.262 13.5606 10.5517 13.4315 10.817C13.3937 10.8958 13.3526 10.9732 13.3081 11.0491C13.3525 10.9733 13.3936 10.896 13.4313 10.8173C13.5604 10.552 13.625 10.2622 13.625 9.94803C13.625 9.5396 13.543 9.18702 13.379 8.89029C13.215 8.59008 12.976 8.35968 12.6619 8.1991C12.3514 8.03852 11.9745 7.95822 11.5314 7.95822C11.1301 7.95822 10.7672 8.03328 10.4427 8.18339C10.1182 8.3335 9.86002 8.54993 9.6681 8.83269C9.65025 8.85949 9.63321 8.88678 9.61699 8.91457C9.63326 8.88669 9.65035 8.85931 9.66826 8.83243C9.86017 8.54967 10.1184 8.33323 10.4429 8.18313C10.7674 8.03302 11.1303 7.95796 11.5316 7.95796C11.9747 7.95796 12.3515 8.03825 12.6621 8.19884C12.9761 8.35942 13.2152 8.58982 13.3792 8.89003C13.5432 9.18676 13.6252 9.53934 13.6252 9.94777ZM10.3433 9.84828H10.3434C10.3464 9.6393 10.389 9.46479 10.4711 9.32474C10.3889 9.46478 10.3463 9.63929 10.3433 9.84828ZM12.0401 12.5492C11.9904 12.6347 11.9517 12.7241 11.924 12.8175C11.8577 13.0409 11.8245 13.2817 11.8245 13.5399H11.8247C11.8247 13.2816 11.8578 13.0407 11.9241 12.8173C11.9518 12.7239 11.9905 12.6346 12.0401 12.5492ZM12.1963 11.0579C12.3015 10.9445 12.3911 10.8249 12.465 10.699C12.391 10.825 12.3014 10.9447 12.1961 11.0581C12.0635 11.2013 11.917 11.3549 11.7565 11.5189C11.5366 11.7458 11.3604 11.9483 11.2278 12.1263C11.1875 12.1806 11.1505 12.2365 11.1169 12.2943C11.1505 12.2364 11.1876 12.1804 11.228 12.1261C11.3606 11.9481 11.5368 11.7456 11.7566 11.5187C11.9171 11.3546 12.0637 11.201 12.1963 11.0579ZM10.8507 14.7069C10.7276 14.8433 10.6676 15.0106 10.6676 15.1998C10.6676 15.3839 10.7287 15.5472 10.8507 15.6822C10.9821 15.8278 11.1663 15.8913 11.3798 15.8913C11.5958 15.8913 11.7822 15.8283 11.9141 15.6822C12.0361 15.5472 12.0972 15.3839 12.0972 15.1998C12.0972 15.0106 12.0372 14.8433 11.9141 14.7069C11.7822 14.5608 11.5958 14.4979 11.3798 14.4979C11.1663 14.4979 10.9821 14.5614 10.8507 14.7069ZM10.8866 14.8962C10.906 14.8629 10.9291 14.8315 10.9558 14.8019C11.0535 14.6936 11.1948 14.6395 11.3798 14.6395C11.5682 14.6395 11.7113 14.6936 11.809 14.8019C11.9067 14.9101 11.9555 15.0427 11.9555 15.1998C11.9555 15.3066 11.9308 15.4028 11.8814 15.4883C11.9307 15.4028 11.9554 15.3067 11.9554 15.2001C11.9554 15.043 11.9065 14.9103 11.8088 14.8021C11.7111 14.6939 11.568 14.6398 11.3796 14.6398C11.1947 14.6398 11.0534 14.6939 10.9557 14.8021C10.929 14.8317 10.9059 14.863 10.8866 14.8962Z" fill="#5516AA"/>
</svg>
