<svg width="24" height="24" viewBox="0 0 24 24" fill="none" xmlns="http://www.w3.org/2000/svg">
<path d="M9 14.5V20.5H15V14.5H9Z" fill="#EFEFF4"/>
<path d="M4.99992 22H18.9994C19.5298 22 20.0385 21.7893 20.4135 21.4142C20.7886 21.0392 20.9993 20.5305 20.9993 20.0001V11.0004C21 10.8688 20.9748 10.7384 20.9251 10.6165C20.8753 10.4947 20.802 10.3839 20.7093 10.2905L12.7096 2.29078C12.5223 2.10454 12.2688 2 12.0046 2C11.7405 2 11.487 2.10454 11.2997 2.29078L3.29999 10.2905C3.2055 10.3831 3.13034 10.4935 3.07884 10.6154C3.02735 10.7373 3.00055 10.8681 3 11.0004V20.0001C3 20.5305 3.21071 21.0392 3.58576 21.4142C3.96082 21.7893 4.46951 22 4.99992 22ZM9.99972 20.0001V15.0003H13.9996V20.0001H9.99972ZM4.99992 11.4104L11.9996 4.4107L18.9994 11.4104V20.0001H15.9995V15.0003C15.9995 14.4699 15.7888 13.9612 15.4137 13.5861C15.0387 13.2111 14.53 13.0004 13.9996 13.0004H9.99972C9.46931 13.0004 8.96062 13.2111 8.58557 13.5861C8.21051 13.9612 7.9998 14.4699 7.9998 15.0003V20.0001H4.99992V11.4104Z" fill="#8181A5"/>
</svg>
