<svg width="24" height="24" viewBox="0 0 24 24" fill="none" xmlns="http://www.w3.org/2000/svg">
<circle cx="12" cy="12" r="11.25" fill="#F9F8FB" stroke="#5516AA" stroke-width="1.5"/>
<path fill-rule="evenodd" clip-rule="evenodd" d="M10.8837 14.8783L10.8816 15.0804H12.6581V14.8804C12.6581 14.5329 12.7027 14.2122 12.7902 13.9172C12.8724 13.6402 13.0333 13.3868 13.2813 13.1568L13.2821 13.156C13.6025 12.8555 13.9054 12.54 14.1908 12.2094C14.4824 11.8715 14.7213 11.5095 14.9066 11.1234C15.1029 10.72 15.2 10.2809 15.2 9.80919C15.2 9.20582 15.0787 8.67352 14.8279 8.21958C14.5766 7.75969 14.2094 7.40654 13.7318 7.16224C13.2585 6.91759 12.6934 6.80005 12.0443 6.80005C11.4524 6.80005 10.9109 6.9109 10.4234 7.1364C9.93389 7.36283 9.54055 7.69162 9.24826 8.12227L9.24732 8.12369C8.95685 8.55959 8.81041 9.07633 8.79999 9.66519L8.79639 9.86873H10.5641L10.5669 9.67159C10.5714 9.35581 10.6454 9.12195 10.7713 8.95276L10.7726 8.95098C10.9075 8.7654 11.0839 8.62822 11.3064 8.53831C11.5379 8.44476 11.7834 8.39763 12.0443 8.39763C12.3641 8.39763 12.6156 8.45937 12.8092 8.57064L12.8107 8.57152C13.0111 8.6843 13.1599 8.84327 13.2605 9.05297L13.2619 9.05586C13.3683 9.26876 13.4256 9.53 13.4256 9.84615C13.4256 10.1578 13.3707 10.4143 13.269 10.6224C13.1598 10.8406 13.0159 11.0467 12.836 11.2405C12.6502 11.441 12.4439 11.6572 12.2184 11.8878C11.9043 12.2119 11.6493 12.5045 11.4553 12.765C11.2531 13.0365 11.1067 13.3376 11.0164 13.6669L11.0159 13.6691C10.9313 13.9916 10.8887 14.3964 10.8837 14.8783ZM12.4581 14.8804H11.0837C11.0844 14.812 11.0859 14.7453 11.0882 14.6804C11.1015 14.2971 11.1419 13.9769 11.2093 13.7198C11.2931 13.4143 11.4285 13.1358 11.6157 12.8845C11.8029 12.6331 12.0517 12.3473 12.362 12.0269C12.5886 11.7953 12.7955 11.5785 12.9827 11.3764C13.1748 11.1694 13.33 10.9476 13.4482 10.7111C13.5665 10.4696 13.6256 10.1813 13.6256 9.84615C13.6256 9.5061 13.564 9.21286 13.4408 8.96645C13.3226 8.72003 13.1453 8.53029 12.9088 8.39723C12.6773 8.26416 12.3891 8.19763 12.0443 8.19763C12.0086 8.19763 11.9731 8.19844 11.9378 8.20006C11.9731 8.19844 12.0086 8.19763 12.0443 8.19763C12.3892 8.19763 12.6773 8.26416 12.9089 8.39722C13.1453 8.53029 13.3227 8.72003 13.4409 8.96644C13.564 9.21286 13.6256 9.50609 13.6256 9.84615C13.6256 10.1813 13.5665 10.4696 13.4483 10.7111C13.33 10.9476 13.1749 11.1694 12.9828 11.3764C12.7956 11.5785 12.5887 11.7953 12.3621 12.0269C12.0517 12.3473 11.803 12.6331 11.6158 12.8845C11.4286 13.1358 11.2931 13.4142 11.2094 13.7198C11.1305 14.0204 11.0887 14.4073 11.0837 14.8804L12.4581 14.8804ZM11.6296 7.01992C11.225 7.05965 10.8509 7.15899 10.5073 7.31793C10.0492 7.52984 9.68469 7.8354 9.41375 8.23459C9.18014 8.58516 9.04531 8.99654 9.00926 9.46873C9.00426 9.53423 9.00116 9.60089 8.99996 9.66873H10.367C10.367 9.66873 10.367 9.66873 10.367 9.66873H9C9.00985 9.11183 9.14778 8.63378 9.41379 8.23459C9.68473 7.8354 10.0493 7.52984 10.5074 7.31792C10.851 7.15899 11.225 7.05965 11.6296 7.01992ZM11.083 16.528C10.9092 16.7205 10.8246 16.9567 10.8246 17.2238C10.8246 17.4837 10.9109 17.7142 11.083 17.9049C11.2685 18.1104 11.5286 18.2 11.83 18.2C12.135 18.2 12.3982 18.1112 12.5844 17.9049C12.7565 17.7142 12.8428 17.4837 12.8428 17.2238C12.8428 16.9567 12.7582 16.7205 12.5844 16.528C12.3982 16.3217 12.135 16.2328 11.83 16.2328C11.5286 16.2328 11.2685 16.3225 11.083 16.528ZM11.0246 17.2238C11.0246 17.0021 11.0936 16.8148 11.2315 16.662C11.3349 16.5474 11.473 16.4758 11.6457 16.4472C11.473 16.4758 11.335 16.5474 11.2315 16.662C11.0936 16.8148 11.0246 17.0021 11.0246 17.2238C11.0246 17.4358 11.0936 17.6181 11.2315 17.7709C11.349 17.901 11.5111 17.9757 11.7178 17.995C11.5111 17.9757 11.3489 17.901 11.2315 17.7709C11.0936 17.6181 11.0246 17.4358 11.0246 17.2238Z" fill="#5516AA"/>
</svg>
