<svg width="64" height="25" viewBox="0 0 64 25" fill="none" xmlns="http://www.w3.org/2000/svg">
<path d="M14.3631 25C13.4234 23.3525 12.5936 21.8637 11.7515 20.3871C11.2268 19.4719 10.6654 18.5932 10.1529 17.6658C9.16441 15.8719 9.14 16.5919 10.1529 14.8224C11.8247 11.8936 13.5088 8.97694 15.2539 6.08474C15.6688 5.38914 16.3156 4.82779 16.8281 4.19321C18.1217 2.60677 19.7814 1.58169 21.6485 0.849482C23.8817 -0.0291624 26.2003 -0.077976 28.7142 0.0562614C23.9305 8.36677 19.1956 16.6041 14.3631 25Z" fill="white"/>
<path d="M0 0.00777358C0.817627 0.00777358 1.44 -0.00442981 2.07458 0.00777358C3.36814 0.0321804 4.6861 -0.0532435 5.96746 0.105401C10.1776 0.630147 12.9722 5.05998 11.4712 9.02608C10.739 10.9664 9.54305 12.7237 8.46916 14.7373C5.61356 9.75829 2.85559 4.96235 0 0.00777358Z" fill="white"/>
<path d="M38.8107 7.03442H41.006L37.5519 17.1664H35.5562L32.1328 7.03442H34.3895L36.5848 14.7255L38.8107 7.03442Z" fill="white"/>
<path d="M46.2254 9.8284C46.7473 10.0587 47.1772 10.4271 47.5149 10.9337C47.8219 11.3789 48.0215 11.9009 48.1136 12.4842C48.1597 12.8219 48.1904 13.3285 48.175 13.9733H42.7252C42.7559 14.7255 43.0169 15.2475 43.5081 15.5545C43.7998 15.7387 44.1683 15.8308 44.5828 15.8308C45.028 15.8308 45.3964 15.7234 45.6727 15.4931C45.8262 15.3703 45.9644 15.2014 46.0719 14.9712H48.0676C48.0215 15.4164 47.7759 15.8615 47.346 16.3221C46.6706 17.0436 45.7341 17.4121 44.5214 17.4121C43.5235 17.4121 42.6485 17.105 41.8809 16.491C41.1133 15.8769 40.7449 14.879 40.7449 13.4974C40.7449 12.1925 41.0826 11.21 41.7734 10.5039C42.4642 9.79769 43.3546 9.45996 44.4599 9.45996C45.1201 9.47531 45.7034 9.59812 46.2254 9.8284ZM43.2932 11.5171C43.0169 11.8087 42.848 12.1925 42.7713 12.6838H46.1486C46.1179 12.1618 45.9337 11.7627 45.6267 11.5017C45.3196 11.2254 44.9205 11.1026 44.4599 11.1026C43.9533 11.1026 43.5696 11.2407 43.2932 11.5171Z" fill="white"/>
<path d="M50.4227 15.0232C50.4687 15.3763 50.5608 15.622 50.699 15.7601C50.9446 16.0211 51.3898 16.1593 52.0499 16.1593C52.4337 16.1593 52.7408 16.0978 52.971 15.9904C53.2013 15.8829 53.3088 15.6987 53.3088 15.4684C53.3088 15.2535 53.2167 15.0846 53.0324 14.9618C52.8482 14.8544 52.1727 14.6548 50.9753 14.3631C50.131 14.1482 49.5169 13.8872 49.1792 13.5648C48.8261 13.2578 48.6572 12.7973 48.6572 12.2139C48.6572 11.5231 48.9336 10.9244 49.4709 10.4331C50.0082 9.94188 50.7758 9.68091 51.7736 9.68091C52.71 9.68091 53.4776 9.86513 54.061 10.2336C54.6443 10.602 54.9974 11.2468 55.0742 12.1679H53.1092C53.0785 11.9222 53.0171 11.7227 52.8943 11.5691C52.6793 11.3082 52.3109 11.17 51.789 11.17C51.3591 11.17 51.0521 11.2314 50.8679 11.3696C50.6836 11.5077 50.5915 11.6613 50.5915 11.8301C50.5915 12.0604 50.6836 12.2139 50.8832 12.3214C51.0828 12.4288 51.7583 12.613 52.925 12.8587C53.7079 13.0429 54.2913 13.3192 54.675 13.6877C55.0588 14.0561 55.2584 14.532 55.2584 15.1C55.2584 15.8369 54.9821 16.4509 54.4294 16.9115C53.8768 17.372 53.0171 17.6176 51.8657 17.6176C50.6836 17.6176 49.8086 17.372 49.256 16.8654C48.6879 16.3742 48.4116 15.7294 48.4116 14.9618H50.4227V15.0232Z" fill="white"/>
<path d="M56.2349 11.1491V9.75212H57.2788V7.66431H59.2131V9.75212H60.4258V11.1491H59.2131V15.1098C59.2131 15.4168 59.2591 15.6011 59.3359 15.6778C59.4126 15.7546 59.6583 15.7853 60.0574 15.7853C60.1188 15.7853 60.1802 15.7853 60.2416 15.7853C60.303 15.7853 60.3798 15.7853 60.4412 15.7699V17.2283L59.5201 17.259C58.599 17.2897 57.9542 17.1362 57.6165 16.7831C57.4016 16.5528 57.2788 16.2151 57.2788 15.7392V11.1184H56.2349V11.1491Z" fill="white"/>
<path d="M61.6543 15.1252H63.7421V17.1823H61.6543V15.1252Z" fill="white"/>
</svg>
