<svg width="24" height="24" viewBox="0 0 24 24" fill="none" xmlns="http://www.w3.org/2000/svg">
<rect x="4" y="4" width="8" height="14" rx="2" fill="#F6F0FE"/>
<path d="M12.3333 14.5469V15.4258C12.3333 16.1251 12.0699 16.7957 11.6011 17.2902C11.1323 17.7847 10.4964 18.0625 9.83333 18.0625H6.5C5.83696 18.0625 5.20107 17.7847 4.73223 17.2902C4.26339 16.7957 4 16.1251 4 15.4258V6.63672C4 5.93742 4.26339 5.26676 4.73223 4.77228C5.20107 4.2778 5.83696 4 6.5 4H9.83333C10.4964 4 11.1323 4.2778 11.6011 4.77228C12.0699 5.26676 12.3333 5.93742 12.3333 6.63672V7.51562M15.6667 14.5469L19 11.0312L15.6667 14.5469ZM19 11.0312L15.6667 7.51562L19 11.0312ZM19 11.0312H7.33333H19Z" stroke="#5516AA" stroke-width="1.5" stroke-linecap="round" stroke-linejoin="round"/>
</svg>
