<svg width="17" height="16" viewBox="0 0 17 16" fill="none" xmlns="http://www.w3.org/2000/svg">
<path d="M7.66667 11.5469V12.4258C7.66667 13.1251 7.93006 13.7957 8.3989 14.2902C8.86774 14.7847 9.50363 15.0625 10.1667 15.0625H13.5C14.163 15.0625 14.7989 14.7847 15.2678 14.2902C15.7366 13.7957 16 13.1251 16 12.4258V3.63672C16 2.93742 15.7366 2.26676 15.2678 1.77228C14.7989 1.2778 14.163 1 13.5 1H10.1667C9.50363 1 8.86774 1.2778 8.3989 1.77228C7.93006 2.26676 7.66667 2.93742 7.66667 3.63672V4.51562M4.33333 11.5469L1 8.03125L4.33333 11.5469ZM1 8.03125L4.33333 4.51562L1 8.03125ZM1 8.03125H12.6667H1Z" stroke="#5516AA" stroke-width="1.5" stroke-linecap="round" stroke-linejoin="round"/>
</svg>
