<svg width="24" height="24" viewBox="0 0 24 24" fill="none" xmlns="http://www.w3.org/2000/svg">
<path d="M13.5 10.5V3.5C18.7 3.5 20.3333 8.16667 20.5 10.5H13.5Z" fill="#EFEFF4"/>
<path d="M13 2C12.7348 2 12.4804 2.10536 12.2929 2.29289C12.1054 2.48043 12 2.73478 12 3V11C12 11.2652 12.1054 11.5196 12.2929 11.7071C12.4804 11.8946 12.7348 12 13 12H21C21.2652 12 21.5196 11.8946 21.7071 11.7071C21.8946 11.5196 22 11.2652 22 11C22 8.61305 21.0518 6.32387 19.364 4.63604C17.6761 2.94821 15.3869 2 13 2ZM14 10V4.07C15.4962 4.28561 16.8824 4.97978 17.9513 6.04868C19.0202 7.11759 19.7144 8.50379 19.93 10H14Z" fill="#8181A5"/>
<path d="M20.8189 14.0596C20.6948 14.0153 20.5632 13.9959 20.4316 14.0026C20.3 14.0092 20.171 14.0419 20.0521 14.0986C19.9331 14.1552 19.8265 14.2349 19.7385 14.3329C19.6504 14.4309 19.5826 14.5453 19.5389 14.6696C19.0882 15.9436 18.3222 17.0826 17.3123 17.9804C16.3025 18.8782 15.0816 19.5056 13.7637 19.8041C12.4458 20.1025 11.0738 20.0623 9.77562 19.6871C8.47747 19.3119 7.29551 18.614 6.34001 17.6585C5.38451 16.703 4.68661 15.521 4.31142 14.2229C3.93623 12.9247 3.89598 11.5527 4.19442 10.2348C4.49286 8.91687 5.12026 7.69603 6.0181 6.68616C6.91594 5.67628 8.05495 4.91029 9.32887 4.45963C9.5795 4.37211 9.78509 4.18861 9.90043 3.94951C10.0158 3.7104 10.0314 3.43526 9.94387 3.18463C9.85635 2.934 9.67285 2.72841 9.43374 2.61307C9.19463 2.49774 8.9195 2.48211 8.66887 2.56963C7.07591 3.13241 5.6515 4.0896 4.52858 5.35185C3.40567 6.61411 2.62085 8.14029 2.24739 9.78794C1.87393 11.4356 1.92399 13.151 2.39291 14.7741C2.86183 16.3971 3.73431 17.875 4.92893 19.0696C6.12355 20.2642 7.60136 21.1367 9.22443 21.6056C10.8475 22.0745 12.5629 22.1246 14.2106 21.7511C15.8582 21.3777 17.3844 20.5928 18.6466 19.4699C19.9089 18.347 20.8661 16.9226 21.4289 15.3296C21.5154 15.0803 21.4998 14.8069 21.3855 14.569C21.2712 14.3311 21.0676 14.148 20.8189 14.0596Z" fill="#8181A5"/>
</svg>
