<svg width="24" height="24" viewBox="0 0 24 24" fill="none" xmlns="http://www.w3.org/2000/svg">
<path d="M19 17.5V7L11.5 11.5L4 7V17L19 17.5Z" fill="#F6F0FE"/>
<path d="M18.7857 6H4.21429C3.89224 6 3.58338 6.12793 3.35566 6.35566C3.12793 6.58338 3 6.89224 3 7.21429V16.9286C3 17.2506 3.12793 17.5595 3.35566 17.7872C3.58338 18.0149 3.89224 18.1429 4.21429 18.1429H18.7857C19.1078 18.1429 19.4166 18.0149 19.6443 17.7872C19.8721 17.5595 20 17.2506 20 16.9286V7.21429C20 6.89224 19.8721 6.58338 19.6443 6.35566C19.4166 6.12793 19.1078 6 18.7857 6ZM17 7.21429L11.5 11L5.83085 7.21429H17ZM4.5 17V8L11.1539 12.5693C11.2556 12.6398 11.3763 12.6776 11.5 12.6776C11.6237 12.6776 11.7444 12.6398 11.8461 12.5693L18.7857 7.76679V16.7424L4.5 17Z" fill="#5516AA"/>
<path fill-rule="evenodd" clip-rule="evenodd" d="M4.37267 6H18.6273C18.9925 6 19.342 6.14391 19.5991 6.39899C19.8562 6.65396 20 6.99909 20 7.3583V16.7846C20 17.1438 19.8562 17.4889 19.5991 17.7439C19.342 17.9989 18.9925 18.1429 18.6273 18.1429H4.37267C4.00753 18.1429 3.65803 17.9989 3.40087 17.7439C3.14383 17.4889 3 17.1438 3 16.7846V7.3583C3 6.99909 3.14383 6.65396 3.40087 6.39899C3.65803 6.14391 4.00753 6 4.37267 6ZM17.5 6.99976H5.5L11.5 11.3527L17.5 6.99976ZM18 6.99976H5L11.5 11.1325L18 6.99976ZM4.55745 8.24147V16.6045H18.4425V8.24147L11.8385 12.5545M18.4425 8.02126L19 7.49976V16.9998H4V7.53831L11.1615 12.5545M4.37267 6.18002H18.6273C18.9424 6.18002 19.2445 6.30416 19.4673 6.52513C19.6901 6.7461 19.8152 7.0458 19.8152 7.3583V16.7846C19.8152 17.0971 19.6901 17.3968 19.4673 17.6177C19.2445 17.8387 18.9424 17.9628 18.6273 17.9628H4.37267C4.05762 17.9628 3.75548 17.8387 3.53271 17.6177C3.30993 17.3968 3.18478 17.0971 3.18478 16.7846V7.3583C3.18478 7.0458 3.30993 6.7461 3.53271 6.52513C3.75548 6.30416 4.05762 6.18002 4.37267 6.18002Z" fill="#5516AA"/>
</svg>
