<svg width="20" height="16" viewBox="0 0 20 16" fill="none" xmlns="http://www.w3.org/2000/svg">
<path d="M1 3.34474C1 2.31634 1.80589 1.48267 2.8 1.48267H17.2C18.1941 1.48267 19 2.31634 19 3.34474V12.6551C19 13.6835 18.1941 14.5171 17.2 14.5171H2.8C1.80589 14.5171 1 13.6835 1 12.6551V3.34474Z" stroke="#8181A5" stroke-width="1.5" stroke-linecap="round" stroke-linejoin="round"/>
<path d="M10.0001 10.793C11.5427 10.793 12.7932 9.54251 12.7932 7.99992C12.7932 6.45733 11.5427 5.20682 10.0001 5.20682C8.45755 5.20682 7.20703 6.45733 7.20703 7.99992C7.20703 9.54251 8.45755 10.793 10.0001 10.793Z" stroke="#8181A5" stroke-width="1.5" stroke-linecap="round" stroke-linejoin="round"/>
<path d="M1 5.2068C3.05679 5.2068 4.72414 3.53945 4.72414 1.48267" stroke="#8181A5" stroke-width="1.5" stroke-linecap="round" stroke-linejoin="round"/>
<path d="M15.2759 14.5171C15.2759 12.4604 16.9433 10.793 19 10.793" stroke="#8181A5" stroke-width="1.5" stroke-linecap="round" stroke-linejoin="round"/>
</svg>
