<svg width="24" height="24" viewBox="0 0 24 24" fill="none" xmlns="http://www.w3.org/2000/svg">
<rect x="15" y="12" width="2" height="4" fill="#F6F0FE"/>
<rect x="6" y="12" width="2" height="4" fill="#F6F0FE"/>
<path d="M17.9996 12.2675C18.0008 12.0006 17.9587 10.9934 17.9266 10.7053C17.5568 7.39938 14.8694 5 11.5368 5C8.06562 5 5.25319 7.67039 5.06239 11.2112C5.05833 11.2885 5.02988 11.8368 5.02785 12.1632L5.02683 12.3448C5.01016 12.4199 5 12.4973 5 12.5773V15.2988C5 15.8932 5.48418 16.3766 6.0795 16.3766H7.17526C7.77058 16.3766 8.25496 15.8932 8.25496 15.2988V12.5775C8.25496 11.9831 7.77037 11.4997 7.17525 11.4997H6.0793C6.006 11.4997 5.93289 11.5071 5.86108 11.5218C5.86718 11.3902 5.87266 11.2863 5.8741 11.2549C6.04132 8.15136 8.50449 5.81142 11.5368 5.81142C14.4483 5.81142 16.7957 7.90773 17.1188 10.7956C17.1324 10.9161 17.1498 11.2224 17.1639 11.5299C17.0852 11.5117 17.0042 11.4997 16.9201 11.4997H15.8371C15.2418 11.4997 14.7576 11.9831 14.7576 12.5775V15.2864C14.7576 15.6968 14.9913 16.0504 15.3302 16.2321L12.7213 17.2547V17.1886C12.7213 16.9646 12.5393 16.7829 12.315 16.7829H11.0959C10.8716 16.7829 10.6895 16.9646 10.6895 17.1886V17.5943C10.6895 17.8182 10.8716 18 11.0959 18H12.315C12.3184 18 12.3215 17.999 12.3249 17.999L13.0533 17.9961L17.2383 16.3559C17.2931 16.3331 17.3397 16.2993 17.3779 16.2587C17.7442 16.0861 18 15.7169 18 15.2864V12.5774C18 12.5113 17.9919 12.447 17.9803 12.3843C17.9915 12.347 17.9994 12.3083 17.9996 12.2675ZM6.07931 12.3111H7.1751C7.3224 12.3111 7.44206 12.4304 7.44206 12.5775V15.299C7.44206 15.4461 7.32219 15.5653 7.17507 15.5653H6.07933C5.93202 15.5653 5.81256 15.446 5.81256 15.299V12.5775C5.81275 12.4304 5.93221 12.3111 6.07931 12.3111ZM15.5701 12.5775C15.5701 12.4304 15.8369 12.3111 15.8369 12.3111H16.9199C17.0672 12.3111 17.1869 12.4304 17.1869 12.5775V15.2864C17.1869 15.4335 17.067 15.5528 16.9199 15.5528H15.8369C15.6896 15.5528 15.5701 15.4335 15.5701 15.2864V12.5775Z" fill="#5516AA" stroke="#5516AA" stroke-width="0.5"/>
</svg>
