<svg width="24" height="24" viewBox="0 0 24 24" fill="none" xmlns="http://www.w3.org/2000/svg">
<path d="M12.5 6H7.5V18.5H16.5V9.5H13L12.5 6Z" fill="#F6F0FE"/>
<path d="M17.0498 8.85013L13.5498 5.35017C13.5058 5.30132 13.4518 5.2626 13.3913 5.2367C13.3309 5.21081 13.2656 5.19834 13.1998 5.20017H8.19993C7.93497 5.20096 7.68108 5.30657 7.49371 5.49394C7.30635 5.6813 7.20074 5.93519 7.19995 6.20016V18.2C7.20074 18.465 7.30635 18.7189 7.49371 18.9062C7.68108 19.0936 7.93497 19.1992 8.19993 19.2H16.1998C16.4648 19.1992 16.7187 19.0936 16.906 18.9062C17.0934 18.7189 17.199 18.465 17.1998 18.2V9.20012C17.2016 9.1344 17.1891 9.06907 17.1632 9.00864C17.1373 8.94821 17.0986 8.89413 17.0498 8.85013ZM13.1998 6.40016L15.9998 9.20012H13.1998V6.40016ZM16.1998 18.2H8.19993V6.20016H12.1999V9.20012C12.2007 9.46509 12.3063 9.71898 12.4936 9.90635C12.681 10.0937 12.9349 10.1993 13.1998 10.2001H16.1998V18.2Z" fill="#5516AA"/>
<path fill-rule="evenodd" clip-rule="evenodd" d="M8.19998 5.20018H13.1999C13.2656 5.19834 13.3309 5.21081 13.3914 5.23671C13.4518 5.26261 13.5059 5.30132 13.5499 5.35017L17.0498 8.85013C17.0987 8.89413 17.1374 8.94821 17.1633 9.00864C17.1892 9.06907 17.2017 9.13441 17.1998 9.20013V18.2C17.199 18.465 17.0934 18.7189 16.9061 18.9062C16.7187 19.0936 16.4648 19.1992 16.1998 19.2H8.19998C7.93501 19.1992 7.68112 19.0936 7.49376 18.9062C7.3064 18.7189 7.20079 18.465 7.2 18.2V6.20016C7.20079 5.93519 7.3064 5.6813 7.49376 5.49394C7.68112 5.30658 7.93501 5.20097 8.19998 5.20018ZM17.3998 9.20267V18.2C17.3989 18.5178 17.2722 18.8229 17.0475 19.0477C16.8228 19.2724 16.5182 19.399 16.2004 19.4L8.19998 19.4C7.88218 19.399 7.57706 19.2724 7.35234 19.0477C7.12762 18.8229 7.00095 18.5184 7 18.2006L7 6.20016C7.00095 5.88236 7.12762 5.57724 7.35234 5.35252C7.57706 5.1278 7.88158 5.00113 8.19939 5.00018L13.1974 5.00018C13.291 4.998 13.384 5.01597 13.4702 5.05288C13.5555 5.08944 13.632 5.14372 13.6947 5.21211L17.1879 8.70535C17.2563 8.76803 17.3106 8.84455 17.3471 8.92986C17.384 9.01598 17.402 9.10902 17.3998 9.20267ZM13.1999 10.2001C12.9349 10.1993 12.681 10.0937 12.4937 9.90635C12.3063 9.71899 12.2007 9.4651 12.1999 9.20013V6.20016H8.19998V18.2H16.1998V10.2001H13.1999ZM15.9998 10.4001H13.1999C12.8821 10.3992 12.577 10.2725 12.3523 10.0478C12.1275 9.82305 12.0009 9.51853 11.9999 9.20072L11.9999 6.40016H8.39998V18H15.9998V10.4001ZM13.1999 6.40016V9.20013H15.9998L13.1999 6.40016ZM13.3999 6.88301V9.00013H15.517L13.3999 6.88301Z" fill="#5516AA"/>
</svg>
